<svg width="134" height="134" viewBox="0 0 134 134" fill="none" xmlns="http://www.w3.org/2000/svg">
<circle cx="67" cy="67" r="67" fill="#F64A00"/>
<path d="M37.3026 55.08H28.7826V51.2H50.2626V55.08H41.7826V82H37.3026V55.08ZM63.6789 78.64C65.1989 78.64 66.6122 78.3333 67.9189 77.72C69.2255 77.08 70.3589 76.2267 71.3189 75.16C72.2789 74.0667 73.0255 72.7867 73.5589 71.32C74.0922 69.8533 74.3589 68.28 74.3589 66.6C74.3589 64.92 74.0922 63.36 73.5589 61.92C73.0255 60.4533 72.2789 59.1867 71.3189 58.12C70.3589 57.0267 69.2255 56.1733 67.9189 55.56C66.6122 54.92 65.1989 54.6 63.6789 54.6C62.1322 54.6 60.7055 54.92 59.3989 55.56C58.0922 56.1733 56.9589 57.0267 55.9989 58.12C55.0389 59.1867 54.2922 60.4533 53.7589 61.92C53.2255 63.36 52.9589 64.92 52.9589 66.6C52.9589 68.28 53.2255 69.8533 53.7589 71.32C54.2922 72.7867 55.0389 74.0667 55.9989 75.16C56.9589 76.2267 58.0922 77.08 59.3989 77.72C60.7055 78.3333 62.1322 78.64 63.6789 78.64ZM63.6789 50.68C65.8655 50.68 67.8922 51.0933 69.7589 51.92C71.6255 52.72 73.2255 53.84 74.5589 55.28C75.9189 56.72 76.9722 58.4133 77.7189 60.36C78.4922 62.28 78.8789 64.36 78.8789 66.6C78.8789 68.84 78.4922 70.9333 77.7189 72.88C76.9722 74.8267 75.9189 76.52 74.5589 77.96C73.2255 79.3733 71.6255 80.4933 69.7589 81.32C67.8922 82.12 65.8655 82.52 63.6789 82.52C61.4655 82.52 59.4255 82.12 57.5589 81.32C55.6922 80.4933 54.0789 79.3733 52.7189 77.96C51.3855 76.52 50.3322 74.8267 49.5589 72.88C48.8122 70.9333 48.4389 68.84 48.4389 66.6C48.4389 64.36 48.8122 62.28 49.5589 60.36C50.3322 58.4133 51.3855 56.72 52.7189 55.28C54.0789 53.84 55.6922 52.72 57.5589 51.92C59.4255 51.0933 61.4655 50.68 63.6789 50.68ZM85.132 82H80.692V51.2H90.652C92.2787 51.2 93.7453 51.4133 95.052 51.84C96.3853 52.2667 97.5053 52.88 98.412 53.68C99.3453 54.48 100.052 55.4533 100.532 56.6C101.039 57.7467 101.292 59.04 101.292 60.48C101.292 62.64 100.759 64.4533 99.692 65.92C98.652 67.36 97.1853 68.4 95.292 69.04L101.892 82H96.972C95.9587 79.9467 94.9587 77.9067 93.972 75.88C92.9853 73.8533 91.9853 71.8 90.972 69.72H85.132V82ZM96.772 60.48C96.772 58.6933 96.212 57.3333 95.092 56.4C93.9987 55.4667 92.4387 55 90.412 55H85.132V65.92H90.412C92.4387 65.92 93.9987 65.4667 95.092 64.56C96.212 63.6267 96.772 62.2667 96.772 60.48ZM107.274 80.005C106.754 80.005 106.279 79.915 105.849 79.735C105.419 79.545 105.044 79.29 104.724 78.97C104.414 78.65 104.169 78.275 103.989 77.845C103.819 77.405 103.734 76.935 103.734 76.435C103.734 75.935 103.819 75.47 103.989 75.04C104.169 74.61 104.414 74.235 104.724 73.915C105.044 73.595 105.419 73.345 105.849 73.165C106.279 72.975 106.754 72.88 107.274 72.88C107.754 72.88 108.189 72.955 108.579 73.105C108.969 73.255 109.324 73.45 109.644 73.69L108.939 74.77C108.699 74.58 108.439 74.425 108.159 74.305C107.889 74.175 107.594 74.11 107.274 74.11C106.974 74.11 106.694 74.17 106.434 74.29C106.174 74.41 105.949 74.575 105.759 74.785C105.569 74.995 105.419 75.245 105.309 75.535C105.209 75.815 105.159 76.115 105.159 76.435C105.159 76.765 105.209 77.075 105.309 77.365C105.419 77.645 105.569 77.89 105.759 78.1C105.949 78.31 106.174 78.475 106.434 78.595C106.694 78.715 106.974 78.775 107.274 78.775C107.614 78.775 107.924 78.705 108.204 78.565C108.484 78.415 108.754 78.24 109.014 78.04L109.824 79.075C109.484 79.375 109.104 79.605 108.684 79.765C108.264 79.925 107.794 80.005 107.274 80.005ZM112.824 76.45C112.824 75.66 112.679 74.905 112.389 74.185C112.099 73.465 111.694 72.83 111.174 72.28C110.654 71.73 110.034 71.295 109.314 70.975C108.594 70.655 107.804 70.495 106.944 70.495C106.074 70.495 105.274 70.66 104.544 70.99C103.824 71.31 103.204 71.745 102.684 72.295C102.164 72.845 101.759 73.48 101.469 74.2C101.189 74.92 101.049 75.67 101.049 76.45C101.049 77.32 101.204 78.12 101.514 78.85C101.834 79.58 102.264 80.21 102.804 80.74C103.344 81.26 103.969 81.67 104.679 81.97C105.389 82.26 106.144 82.405 106.944 82.405C107.704 82.405 108.434 82.265 109.134 81.985C109.844 81.705 110.469 81.305 111.009 80.785C111.559 80.265 111.999 79.64 112.329 78.91C112.659 78.17 112.824 77.35 112.824 76.45ZM113.544 76.45C113.544 77.44 113.364 78.34 113.004 79.15C112.654 79.96 112.174 80.655 111.564 81.235C110.964 81.805 110.264 82.25 109.464 82.57C108.664 82.89 107.824 83.05 106.944 83.05C106.014 83.05 105.149 82.88 104.349 82.54C103.549 82.21 102.849 81.75 102.249 81.16C101.659 80.57 101.194 79.875 100.854 79.075C100.514 78.265 100.344 77.39 100.344 76.45C100.344 75.5 100.514 74.625 100.854 73.825C101.204 73.015 101.674 72.315 102.264 71.725C102.864 71.135 103.564 70.675 104.364 70.345C105.164 70.015 106.024 69.85 106.944 69.85C107.814 69.85 108.649 70.01 109.449 70.33C110.249 70.65 110.949 71.1 111.549 71.68C112.159 72.25 112.644 72.94 113.004 73.75C113.364 74.56 113.544 75.46 113.544 76.45Z" fill="white"/>
</svg>
