<svg width="43" height="43" viewBox="0 0 43 43" fill="none" xmlns="http://www.w3.org/2000/svg">
<g clip-path="url(#clip0_512_656)">
<path d="M21.5 24.5234C23.1698 24.5234 24.5234 23.1698 24.5234 21.5C24.5234 19.8302 23.1698 18.4766 21.5 18.4766C19.8302 18.4766 18.4766 19.8302 18.4766 21.5C18.4766 23.1698 19.8302 24.5234 21.5 24.5234Z" fill="#F64A00"/>
<path d="M15.9773 28.7033C15.7161 28.7036 15.4579 28.6485 15.2196 28.5416C14.9813 28.4348 14.7684 28.2787 14.5949 28.0835C12.9831 26.2696 12.0928 23.9274 12.0928 21.5008C12.0928 19.0743 12.9831 16.732 14.5949 14.9181C14.7547 14.732 14.95 14.5796 15.1694 14.4698C15.3888 14.36 15.6279 14.2949 15.8727 14.2785C16.1175 14.262 16.3631 14.2945 16.5952 14.374C16.8273 14.4535 17.0412 14.5784 17.2245 14.7415C17.4079 14.9046 17.5569 15.1025 17.6628 15.3238C17.7688 15.545 17.8297 15.7852 17.8419 16.0302C17.8541 16.2753 17.8173 16.5203 17.7338 16.751C17.6503 16.9817 17.5217 17.1934 17.3554 17.3738C16.345 18.5113 15.787 19.9798 15.787 21.5013C15.787 23.0227 16.345 24.4912 17.3554 25.6287C17.5919 25.8948 17.7463 26.2236 17.8003 26.5755C17.8543 26.9274 17.8055 27.2874 17.6597 27.6122C17.514 27.937 17.2775 28.2128 16.9787 28.4063C16.6799 28.5999 16.3316 28.703 15.9756 28.7033H15.9773Z" fill="#F64A00"/>
<path d="M27.0229 28.7033C26.6669 28.703 26.3186 28.5999 26.0198 28.4063C25.721 28.2128 25.4845 27.937 25.3387 27.6122C25.193 27.2874 25.1442 26.9274 25.1981 26.5755C25.2521 26.2236 25.4066 25.8948 25.643 25.6287C26.6534 24.4912 27.2115 23.0227 27.2115 21.5013C27.2115 19.9798 26.6534 18.5113 25.643 17.3738C25.4768 17.1934 25.3482 16.9817 25.2647 16.751C25.1811 16.5203 25.1444 16.2753 25.1566 16.0302C25.1688 15.7852 25.2296 15.545 25.3356 15.3238C25.4416 15.1025 25.5906 14.9046 25.7739 14.7415C25.9572 14.5784 26.1712 14.4535 26.4033 14.374C26.6354 14.2945 26.881 14.262 27.1258 14.2785C27.3706 14.2949 27.6096 14.36 27.829 14.4698C28.0484 14.5796 28.2437 14.732 28.4036 14.9181C30.0154 16.732 30.9057 19.0743 30.9057 21.5008C30.9057 23.9274 30.0154 26.2696 28.4036 28.0835C28.2302 28.2785 28.0176 28.4345 27.7796 28.5413C27.5416 28.6481 27.2837 28.7033 27.0229 28.7033Z" fill="#F64A00"/>
<path d="M11.6981 32.9823C11.4446 32.9826 11.1939 32.9305 10.9615 32.8293C10.7291 32.7282 10.5201 32.5801 10.3476 32.3945C7.58476 29.4387 6.04785 25.5438 6.04785 21.4979C6.04785 17.452 7.58476 13.5571 10.3476 10.6014C10.513 10.4226 10.712 10.2783 10.9334 10.1768C11.1547 10.0753 11.3939 10.0185 11.6372 10.0097C11.8806 10.0009 12.1233 10.0403 12.3513 10.1257C12.5794 10.211 12.7883 10.3406 12.9661 10.5069C13.1439 10.6733 13.2871 10.8731 13.3874 11.095C13.4877 11.3169 13.5432 11.5564 13.5506 11.7998C13.558 12.0432 13.5173 12.2856 13.4307 12.5132C13.3441 12.7408 13.2134 12.949 13.046 13.1259C10.9234 15.3971 9.74269 18.3897 9.74269 21.4983C9.74269 24.607 10.9234 27.5996 13.046 29.8707C13.2913 30.1338 13.4544 30.4628 13.5153 30.8172C13.5763 31.1717 13.5325 31.5362 13.3893 31.8662C13.2461 32.1961 13.0097 32.477 12.7092 32.6746C12.4086 32.8721 12.0569 32.9776 11.6972 32.9781L11.6981 32.9823Z" fill="#F64A00"/>
<path d="M31.302 32.9823C30.9423 32.9818 30.5906 32.8763 30.2901 32.6788C29.9895 32.4812 29.7531 32.2003 29.6099 31.8704C29.4667 31.5404 29.4229 31.1759 29.4839 30.8214C29.5449 30.467 29.708 30.138 29.9532 29.8749C32.0758 27.6038 33.2565 24.6112 33.2565 21.5025C33.2565 18.3939 32.0758 15.4013 29.9532 13.1301C29.7859 12.9532 29.6551 12.745 29.5685 12.5174C29.4819 12.2898 29.4412 12.0474 29.4486 11.804C29.456 11.5606 29.5115 11.3211 29.6118 11.0992C29.7121 10.8773 29.8553 10.6775 30.0331 10.5111C30.2109 10.3448 30.4199 10.2152 30.6479 10.1299C30.876 10.0445 31.1187 10.0051 31.362 10.0139C31.6053 10.0227 31.8445 10.0795 32.0659 10.181C32.2872 10.2825 32.4862 10.4268 32.6516 10.6055C35.4145 13.5613 36.9514 17.4562 36.9514 21.5021C36.9514 25.548 35.4145 29.4429 32.6516 32.3986C32.4788 32.5835 32.2698 32.7307 32.0376 32.8311C31.8054 32.9315 31.555 32.983 31.302 32.9823Z" fill="#F64A00"/>
<path d="M36.0294 36.7852C35.6727 36.7851 35.3237 36.6818 35.0244 36.4877C34.7252 36.2936 34.4885 36.0171 34.343 35.6914C34.1974 35.3658 34.1492 35.005 34.2042 34.6526C34.2592 34.3002 34.415 33.9712 34.6529 33.7054C37.6492 30.3459 39.3051 26.0016 39.3051 21.5C39.3051 16.9984 37.6492 12.6541 34.6529 9.29455C34.3365 8.92794 34.1767 8.4518 34.2079 7.96857C34.239 7.48535 34.4587 7.03367 34.8195 6.71072C35.1803 6.38777 35.6534 6.21938 36.1371 6.24177C36.6209 6.26416 37.0765 6.47555 37.4059 6.83045C41.0085 10.8675 42.9996 16.0892 42.9996 21.5C42.9996 26.9108 41.0085 32.1324 37.4059 36.1695C37.2326 36.3632 37.0205 36.5181 36.7833 36.6242C36.5461 36.7302 36.2892 36.7851 36.0294 36.7852Z" fill="#F64A00"/>
<path d="M6.97088 36.7852C6.71072 36.7856 6.4534 36.731 6.21586 36.6249C5.97832 36.5188 5.76594 36.3636 5.5927 36.1695C1.99009 32.1324 -0.000976562 26.9108 -0.000976562 21.5C-0.000976563 16.0892 1.99009 10.8675 5.5927 6.83045C5.92213 6.47555 6.37772 6.26416 6.86143 6.24177C7.34514 6.21938 7.81831 6.38777 8.17912 6.71072C8.53993 7.03367 8.75954 7.48535 8.7907 7.96857C8.82185 8.4518 8.66206 8.92794 8.34571 9.29455C5.34938 12.6541 3.69352 16.9984 3.69352 21.5C3.69352 26.0016 5.34938 30.3459 8.34571 33.7054C8.58345 33.9711 8.73924 34.2999 8.79429 34.6522C8.84935 35.0045 8.80131 35.3651 8.65597 35.6907C8.51064 36.0162 8.27421 36.2928 7.97521 36.487C7.67621 36.6812 7.32741 36.7847 6.97088 36.7852Z" fill="#F64A00"/>
</g>
<defs>
<clipPath id="clip0_512_656">
<rect width="43" height="43" fill="white"/>
</clipPath>
</defs>
</svg>
