<svg width="546" height="68" viewBox="0 0 546 68" fill="none" xmlns="http://www.w3.org/2000/svg">
<path d="M13.5757 14.01H0.380664V5.95H36.0007V14.01H22.8707V56H13.5757V14.01ZM59.424 18.95H68.394V56H59.424V51.775C58.124 53.2917 56.5207 54.5267 54.614 55.48C52.7507 56.39 50.779 56.845 48.699 56.845C46.489 56.845 44.4524 56.4767 42.589 55.74C40.769 55.0033 39.209 53.9633 37.909 52.62C36.609 51.2767 35.5907 49.6733 34.854 47.81C34.1174 45.9467 33.749 43.8667 33.749 41.57V18.95H42.719V40.855C42.719 43.1517 43.434 45.0583 44.864 46.575C46.294 48.0917 48.2224 48.85 50.649 48.85C51.819 48.85 52.924 48.6117 53.964 48.135C55.0474 47.6583 55.979 47.03 56.759 46.25C57.5824 45.4267 58.2324 44.4733 58.709 43.39C59.1857 42.3067 59.424 41.18 59.424 40.01V18.95ZM93.7994 27.66C93.106 27.1833 92.326 26.8367 91.4594 26.62C90.636 26.36 89.8344 26.23 89.0544 26.23C87.8844 26.23 86.7577 26.4683 85.6744 26.945C84.6344 27.3783 83.7027 28.0067 82.8794 28.83C82.0994 29.61 81.471 30.5417 80.9944 31.625C80.5177 32.665 80.2794 33.77 80.2794 34.94V56H71.3094V18.95H80.2794V23.175C81.5794 21.5717 83.1394 20.3367 84.9594 19.47C86.7794 18.56 88.7944 18.105 91.0044 18.105C92.0877 18.105 93.1494 18.2567 94.1894 18.56C95.2727 18.8633 96.2694 19.3183 97.1794 19.925L93.7994 27.66ZM104.51 56H95.5396V18.95H104.51V23.175C105.81 21.6583 107.391 20.445 109.255 19.535C111.161 18.5817 113.155 18.105 115.235 18.105C117.445 18.105 119.46 18.4733 121.28 19.21C123.143 19.9467 124.725 20.9867 126.025 22.33C127.325 23.6733 128.343 25.2983 129.08 27.205C129.816 29.0683 130.185 31.1267 130.185 33.38V56H121.215V34.095C121.215 31.7983 120.5 29.8917 119.07 28.375C117.64 26.8583 115.711 26.1 113.285 26.1C112.115 26.1 110.988 26.3383 109.905 26.815C108.865 27.2917 107.933 27.9417 107.11 28.765C106.33 29.545 105.701 30.4767 105.225 31.56C104.748 32.6433 104.51 33.77 104.51 34.94V56ZM136.48 34.225C136.48 27.855 137.628 21.7883 139.925 16.025C142.265 10.2617 145.558 5.235 149.805 0.944996L156.11 5.56C152.73 9.50333 150.152 13.9667 148.375 18.95C146.642 23.89 145.775 28.9817 145.775 34.225C145.775 39.4683 146.642 44.5817 148.375 49.565C150.152 54.505 152.73 58.9467 156.11 62.89L149.805 67.505C145.558 63.215 142.265 58.21 139.925 52.49C137.628 46.7267 136.48 40.6383 136.48 34.225ZM164.353 30.975C164.353 33.4883 164.743 35.8283 165.523 37.995C166.303 40.1617 167.387 42.0467 168.773 43.65C170.16 45.21 171.785 46.445 173.648 47.355C175.555 48.265 177.592 48.72 179.758 48.72C181.925 48.72 183.94 48.265 185.803 47.355C187.71 46.445 189.335 45.21 190.678 43.65C192.065 42.0467 193.148 40.1617 193.928 37.995C194.708 35.8283 195.098 33.4883 195.098 30.975C195.098 28.4617 194.708 26.1433 193.928 24.02C193.148 21.8533 192.065 19.9683 190.678 18.365C189.335 16.7617 187.71 15.505 185.803 14.595C183.94 13.685 181.925 13.23 179.758 13.23C177.592 13.23 175.555 13.685 173.648 14.595C171.785 15.505 170.16 16.7617 168.773 18.365C167.387 19.9683 166.303 21.8533 165.523 24.02C164.743 26.1433 164.353 28.4617 164.353 30.975ZM154.928 30.975C154.928 27.335 155.535 23.955 156.748 20.835C157.962 17.6717 159.673 14.92 161.883 12.58C164.093 10.24 166.715 8.42 169.748 7.12C172.782 5.77666 176.118 5.105 179.758 5.105C183.355 5.105 186.67 5.77666 189.703 7.12C192.737 8.42 195.337 10.24 197.503 12.58C199.713 14.92 201.425 17.6717 202.638 20.835C203.895 23.955 204.523 27.335 204.523 30.975C204.523 34.615 203.895 38.0167 202.638 41.18C201.425 44.3433 199.713 47.095 197.503 49.435C195.337 51.7317 192.737 53.5517 189.703 54.895C186.67 56.195 183.355 56.845 179.758 56.845C176.118 56.845 172.782 56.195 169.748 54.895C166.715 53.5517 164.093 51.7317 161.883 49.435C159.673 47.095 157.962 44.3433 156.748 41.18C155.535 38.0167 154.928 34.615 154.928 30.975ZM205.824 5.95H214.989L236.179 40.53V5.95H245.019V56H235.854L214.664 21.42V56H205.824V5.95ZM266.319 34.225C266.319 40.6383 265.149 46.7267 262.809 52.49C260.512 58.21 257.241 63.215 252.994 67.505L246.689 62.89C250.069 58.9467 252.626 54.505 254.359 49.565C256.136 44.5817 257.024 39.4683 257.024 34.225C257.024 28.9817 256.136 23.89 254.359 18.95C252.626 13.9667 250.069 9.50333 246.689 5.56L252.994 0.944996C257.241 5.235 260.512 10.2617 262.809 16.025C265.149 21.7883 266.319 27.855 266.319 34.225ZM283.272 14.01H270.077V5.95H305.697V14.01H292.567V56H283.272V14.01ZM315.018 56H306.048V3.805H315.018V23.175C316.318 21.6583 317.9 20.445 319.763 19.535C321.67 18.5817 323.663 18.105 325.743 18.105C327.953 18.105 329.968 18.4733 331.788 19.21C333.652 19.9467 335.233 20.9867 336.533 22.33C337.833 23.6733 338.852 25.2983 339.588 27.205C340.325 29.0683 340.693 31.1267 340.693 33.38V56H331.723V34.095C331.723 31.7983 331.008 29.8917 329.578 28.375C328.148 26.8583 326.22 26.1 323.793 26.1C322.623 26.1 321.497 26.3383 320.413 26.815C319.373 27.2917 318.442 27.9417 317.618 28.765C316.838 29.545 316.21 30.4767 315.733 31.56C315.257 32.6433 315.018 33.77 315.018 34.94V56ZM350.889 40.27C351.149 41.83 351.604 43.195 352.254 44.365C352.947 45.4917 353.749 46.445 354.659 47.225C355.612 47.9617 356.674 48.525 357.844 48.915C359.014 49.305 360.227 49.5 361.484 49.5C363.564 49.5 365.427 49.0883 367.074 48.265C368.72 47.3983 370.215 46.2067 371.559 44.69L377.344 50.15C375.177 52.4033 372.859 54.0933 370.389 55.22C367.919 56.3033 364.994 56.845 361.614 56.845C358.537 56.845 355.764 56.3467 353.294 55.35C350.824 54.3533 348.722 52.9883 346.989 51.255C345.299 49.4783 343.977 47.42 343.024 45.08C342.114 42.74 341.659 40.205 341.659 37.475C341.659 34.7883 342.135 32.275 343.089 29.935C344.042 27.5517 345.364 25.4933 347.054 23.76C348.744 21.9833 350.78 20.5967 353.164 19.6C355.547 18.6033 358.169 18.105 361.029 18.105C363.889 18.105 366.467 18.6033 368.764 19.6C371.104 20.5967 373.075 21.94 374.679 23.63C376.282 25.32 377.517 27.3133 378.384 29.61C379.25 31.8633 379.684 34.2683 379.684 36.825C379.684 37.3017 379.64 37.865 379.554 38.515C379.467 39.1217 379.359 39.7067 379.229 40.27H350.889ZM361.029 25.58C358.819 25.58 356.804 26.2517 354.984 27.595C353.164 28.895 351.885 30.845 351.149 33.445H370.389C369.782 31.105 368.699 29.22 367.139 27.79C365.579 26.3167 363.542 25.58 361.029 25.58ZM415.956 21.42C415.956 24.93 415.154 27.8767 413.551 30.26C411.948 32.6433 409.673 34.3983 406.726 35.525L417.061 56H406.856L397.951 36.89H390.606V56H381.311V5.95H398.601C401.288 5.95 403.693 6.31833 405.816 7.055C407.983 7.74833 409.803 8.76666 411.276 10.11C412.793 11.41 413.941 13.035 414.721 14.985C415.544 16.8917 415.956 19.0367 415.956 21.42ZM406.596 21.42C406.596 16.35 403.714 13.815 397.951 13.815H390.606V29.09H397.951C403.714 29.09 406.596 26.5333 406.596 21.42ZM443.859 52.425C442.342 53.8117 440.609 54.895 438.659 55.675C436.709 56.455 434.586 56.845 432.289 56.845C429.689 56.845 427.284 56.3467 425.074 55.35C422.907 54.31 421.044 52.9233 419.484 51.19C417.924 49.4133 416.689 47.355 415.779 45.015C414.912 42.675 414.479 40.1617 414.479 37.475C414.479 34.7883 414.912 32.275 415.779 29.935C416.689 27.595 417.924 25.5583 419.484 23.825C421.044 22.0483 422.907 20.6617 425.074 19.665C427.284 18.625 429.689 18.105 432.289 18.105C434.586 18.105 436.709 18.5167 438.659 19.34C440.609 20.12 442.342 21.2033 443.859 22.59V18.95H452.829V56H443.859V52.425ZM423.514 37.475C423.514 39.035 423.752 40.5083 424.229 41.895C424.706 43.2817 425.377 44.495 426.244 45.535C427.154 46.575 428.237 47.3983 429.494 48.005C430.751 48.5683 432.159 48.85 433.719 48.85C435.192 48.85 436.536 48.5683 437.749 48.005C439.006 47.4417 440.067 46.6833 440.934 45.73C441.844 44.7333 442.537 43.5633 443.014 42.22C443.534 40.8767 443.816 39.4467 443.859 37.93V37.02C443.816 35.5033 443.534 34.095 443.014 32.795C442.537 31.4517 441.844 30.2817 440.934 29.285C440.067 28.2883 439.006 27.5083 437.749 26.945C436.536 26.3817 435.192 26.1 433.719 26.1C432.159 26.1 430.751 26.4033 429.494 27.01C428.237 27.5733 427.154 28.375 426.244 29.415C425.377 30.455 424.706 31.6683 424.229 33.055C423.752 34.4417 423.514 35.915 423.514 37.475ZM483.212 52.425C481.695 53.8117 479.962 54.895 478.012 55.675C476.062 56.455 473.939 56.845 471.642 56.845C469.042 56.845 466.637 56.3467 464.427 55.35C462.26 54.31 460.397 52.9233 458.837 51.19C457.277 49.4133 456.042 47.355 455.132 45.015C454.265 42.675 453.832 40.1617 453.832 37.475C453.832 34.7883 454.265 32.275 455.132 29.935C456.042 27.595 457.277 25.5583 458.837 23.825C460.397 22.0483 462.26 20.6617 464.427 19.665C466.637 18.625 469.042 18.105 471.642 18.105C473.939 18.105 476.062 18.5167 478.012 19.34C479.962 20.12 481.695 21.2033 483.212 22.59V3.805H492.182V56H483.212V52.425ZM462.867 37.475C462.867 39.035 463.105 40.5083 463.582 41.895C464.059 43.2817 464.73 44.495 465.597 45.535C466.507 46.575 467.59 47.3983 468.847 48.005C470.104 48.5683 471.512 48.85 473.072 48.85C474.545 48.85 475.889 48.5683 477.102 48.005C478.359 47.4417 479.42 46.6833 480.287 45.73C481.197 44.7333 481.89 43.5633 482.367 42.22C482.887 40.8767 483.169 39.4467 483.212 37.93V37.02C483.169 35.5033 482.887 34.095 482.367 32.795C481.89 31.4517 481.197 30.2817 480.287 29.285C479.42 28.2883 478.359 27.5083 477.102 26.945C475.889 26.3817 474.545 26.1 473.072 26.1C471.512 26.1 470.104 26.4033 468.847 27.01C467.59 27.5733 466.507 28.375 465.597 29.415C464.73 30.455 464.059 31.6683 463.582 33.055C463.105 34.4417 462.867 35.915 462.867 37.475ZM496.42 18.95H505.39V56H496.42V18.95ZM495.445 9.005C495.445 7.48833 495.965 6.21 497.005 5.17C498.088 4.13 499.388 3.61 500.905 3.61C502.465 3.61 503.765 4.13 504.805 5.17C505.845 6.21 506.365 7.48833 506.365 9.005C506.365 10.5217 505.845 11.8 504.805 12.84C503.765 13.88 502.465 14.4 500.905 14.4C499.388 14.4 498.088 13.88 497.005 12.84C495.965 11.8 495.445 10.5217 495.445 9.005ZM507.688 37.475C507.688 34.7883 508.165 32.275 509.118 29.935C510.071 27.5517 511.393 25.4933 513.083 23.76C514.816 21.9833 516.853 20.5967 519.193 19.6C521.533 18.6033 524.09 18.105 526.863 18.105C529.636 18.105 532.193 18.6033 534.533 19.6C536.873 20.5967 538.888 21.9833 540.578 23.76C542.268 25.4933 543.59 27.5517 544.543 29.935C545.496 32.275 545.973 34.7883 545.973 37.475C545.973 40.205 545.496 42.74 544.543 45.08C543.59 47.42 542.268 49.4783 540.578 51.255C538.888 52.9883 536.873 54.3533 534.533 55.35C532.193 56.3467 529.636 56.845 526.863 56.845C524.09 56.845 521.533 56.3467 519.193 55.35C516.853 54.3533 514.816 52.9883 513.083 51.255C511.393 49.4783 510.071 47.42 509.118 45.08C508.165 42.74 507.688 40.205 507.688 37.475ZM516.723 37.475C516.723 39.0783 516.983 40.5733 517.503 41.96C518.023 43.3467 518.738 44.56 519.648 45.6C520.558 46.64 521.62 47.4633 522.833 48.07C524.09 48.6333 525.433 48.915 526.863 48.915C528.293 48.915 529.615 48.6333 530.828 48.07C532.085 47.4633 533.168 46.64 534.078 45.6C534.988 44.56 535.681 43.3467 536.158 41.96C536.678 40.5733 536.938 39.0783 536.938 37.475C536.938 35.8717 536.678 34.3767 536.158 32.99C535.681 31.6033 534.988 30.4117 534.078 29.415C533.168 28.375 532.085 27.5733 530.828 27.01C529.615 26.4033 528.293 26.1 526.863 26.1C525.433 26.1 524.09 26.4033 522.833 27.01C521.62 27.5733 520.558 28.375 519.648 29.415C518.738 30.4117 518.023 31.6033 517.503 32.99C516.983 34.3767 516.723 35.8717 516.723 37.475Z" fill="black"/>
</svg>
