<svg width="792" height="793" viewBox="0 0 792 793" fill="none" xmlns="http://www.w3.org/2000/svg">
<path d="M125.763 669.406L130.766 674.494L129.192 676.042L117.368 664.017L118.942 662.469L123.946 667.558L139.941 651.83L141.758 653.678L125.763 669.406Z" fill="#F64A00"/>
<path d="M120.067 630.461L121.606 632.385L101.542 648.438L100.003 646.514L108.099 640.037C107.549 640.067 106.997 640.044 106.444 639.967C105.861 639.887 105.293 639.741 104.74 639.528C104.174 639.298 103.631 638.995 103.111 638.618C102.561 638.238 102.053 637.757 101.587 637.174C100.933 636.358 100.475 635.495 100.212 634.585C99.9355 633.659 99.8471 632.746 99.947 631.847C100.047 630.947 100.333 630.076 100.806 629.233C101.28 628.39 101.933 627.635 102.765 626.969L111.611 619.892L113.17 621.841L104.425 628.838C103.842 629.304 103.38 629.837 103.04 630.437C102.701 631.037 102.496 631.652 102.426 632.281C102.339 632.924 102.396 633.576 102.596 634.235C102.766 634.892 103.091 635.52 103.571 636.119C104.024 636.686 104.595 637.144 105.285 637.494C105.974 637.843 106.717 638.055 107.514 638.128C108.293 638.215 109.09 638.151 109.903 637.938C110.699 637.738 111.447 637.358 112.146 636.799L120.067 630.461Z" fill="#F64A00"/>
<path d="M89.8397 604.528C90.6745 603.893 91.3244 603.187 91.7893 602.409C92.2541 601.631 92.5741 600.844 92.7493 600.049C92.895 599.247 92.8985 598.46 92.7596 597.688C92.5912 596.909 92.306 596.205 91.9039 595.576C91.3525 594.713 90.5944 593.982 89.6295 593.384C88.6647 592.785 87.6037 592.412 86.4466 592.266L86.8644 589.948C88.3276 590.178 89.644 590.653 90.8136 591.374C91.9652 592.106 92.9374 593.093 93.73 594.333C94.4422 595.448 94.8903 596.604 95.0742 597.803C95.2401 599.014 95.1818 600.19 94.8993 601.333C94.5873 602.469 94.0665 603.536 93.337 604.534C92.6075 605.532 91.6855 606.387 90.571 607.099C89.4744 607.8 88.3259 608.28 87.1255 608.541C85.9135 608.784 84.7412 608.812 83.6086 608.624C82.4465 608.43 81.3716 608.016 80.3838 607.381C79.3665 606.74 78.5132 605.88 77.824 604.801C77.1577 603.759 76.7498 602.665 76.6004 601.52C76.4215 600.368 76.4758 599.245 76.7634 598.15C77.0329 597.066 77.5202 596.046 78.2252 595.089C78.9123 594.144 79.7861 593.332 80.8467 592.654C81.0085 592.551 81.185 592.451 81.3762 592.354C81.5495 592.268 81.7285 592.192 81.9133 592.125L89.8397 604.528ZM79.6845 603.612C80.0636 604.206 80.5628 604.71 81.182 605.124C81.7833 605.55 82.458 605.853 83.2061 606.033C83.9362 606.225 84.725 606.29 85.5724 606.23C86.3904 606.163 87.2171 605.951 88.0525 605.594L81.4874 595.321C80.8078 595.882 80.2601 596.51 79.8442 597.206C79.3988 597.896 79.104 598.604 78.9597 599.329C78.786 600.047 78.7571 600.775 78.8731 601.511C78.989 602.247 79.2595 602.947 79.6845 603.612Z" fill="#F64A00"/>
<path d="M67.5839 548.355L68.5831 550.677L45.9497 560.416L43.0152 553.597C42.5093 552.421 42.2107 551.295 42.1195 550.22C42.0002 549.133 42.0814 548.134 42.3629 547.224C42.6361 546.293 43.1041 545.465 43.7669 544.738C44.4101 544.02 45.251 543.438 46.2896 542.991C47.8769 542.308 49.3767 542.15 50.789 542.518C52.2014 542.885 53.4393 543.711 54.5029 544.996L62.1449 535.715L63.258 538.302L55.939 547.199L58.1778 552.402L67.5839 548.355ZM47.3141 545.372C45.8444 546.004 44.9243 546.969 44.5536 548.267C44.1634 549.573 44.3393 551.088 45.0814 552.812L46.9787 557.221L56.1202 553.288L54.2229 548.878C53.4808 547.154 52.5211 545.976 51.3436 545.345C50.1466 544.722 48.8034 544.731 47.3141 545.372Z" fill="#F64A00"/>
<path d="M45.5239 518.475C44.2792 518.854 43.0406 518.998 41.808 518.906C40.5754 518.814 39.4389 518.525 38.3986 518.039C37.3379 517.56 36.4203 516.892 35.6459 516.035C34.8448 515.165 34.2668 514.148 33.9119 512.985C33.5134 511.679 33.4521 510.382 33.728 509.093C33.9835 507.811 34.503 506.626 35.2866 505.539L32.3178 506.445L31.5892 504.058L49.0044 498.743L49.7329 501.131L46.7947 502.027C48.0719 502.485 49.1745 503.175 50.1025 504.096C51.0305 505.017 51.6937 506.131 52.0922 507.437C52.4471 508.6 52.5456 509.763 52.3877 510.926C52.2031 512.076 51.8148 513.142 51.2228 514.126C50.6103 515.116 49.8186 515.993 48.8475 516.758C47.8764 517.522 46.7686 518.095 45.5239 518.475ZM44.7767 516.026C45.7357 515.733 46.5939 515.293 47.3512 514.705C48.0882 514.123 48.6889 513.46 49.1533 512.716C49.6177 511.972 49.9215 511.177 50.0646 510.331C50.2015 509.464 50.1423 508.612 49.887 507.775C49.6317 506.939 49.2083 506.209 48.6169 505.587C48.0192 504.944 47.32 504.443 46.5194 504.085C45.7187 503.727 44.8503 503.513 43.9141 503.442C42.9575 503.377 41.9996 503.491 41.0406 503.783C40.0816 504.076 39.2235 504.516 38.4661 505.104C37.7087 505.692 37.0979 506.358 36.6334 507.102C36.169 507.846 35.8684 508.652 35.7315 509.519C35.5884 510.365 35.6445 511.207 35.8998 512.044C36.1551 512.88 36.5815 513.62 37.1792 514.263C37.7707 514.885 38.4667 515.375 39.2674 515.733C40.068 516.091 40.9467 516.303 41.9033 516.368C42.8599 516.432 43.8177 516.319 44.7767 516.026Z" fill="#F64A00"/>
<path d="M34.0358 478.47C32.7565 478.708 31.5095 478.712 30.295 478.483C29.0805 478.253 27.9835 477.839 27.004 477.24C26.0036 476.645 25.1666 475.878 24.4929 474.94C23.7944 473.985 23.3339 472.91 23.1114 471.715C22.8616 470.372 22.9458 469.076 23.3643 467.827C23.7617 466.581 24.4106 465.462 25.3109 464.47L14.8977 466.408L14.441 463.954L39.7032 459.252L40.1599 461.706L37.1398 462.268C38.3577 462.866 39.3762 463.675 40.1952 464.694C41.0142 465.714 41.5487 466.894 41.7985 468.237C42.021 469.432 41.9886 470.599 41.7014 471.738C41.3893 472.859 40.8841 473.875 40.1857 474.786C39.4663 475.702 38.5813 476.485 37.5307 477.136C36.4802 477.787 35.3152 478.232 34.0358 478.47ZM33.5674 475.953C34.5531 475.77 35.4552 475.428 36.2736 474.929C37.0711 474.433 37.7422 473.842 38.287 473.154C38.8318 472.467 39.2226 471.711 39.4596 470.885C39.6927 470.039 39.7292 469.186 39.5692 468.326C39.4092 467.466 39.0701 466.694 38.5521 466.009C38.0301 465.303 37.3914 464.728 36.6358 464.283C35.8803 463.837 35.0413 463.527 34.1189 463.351C33.1756 463.18 32.2111 463.186 31.2253 463.369C30.2396 463.553 29.3375 463.894 28.5191 464.394C27.7007 464.893 27.0191 465.487 26.4743 466.174C25.9295 466.861 25.5406 467.628 25.3075 468.474C25.0705 469.299 25.032 470.142 25.1921 471.002C25.3521 471.862 25.6931 472.645 26.2151 473.35C26.7331 474.035 27.3699 474.6 28.1255 475.046C28.881 475.491 29.7305 475.799 30.6738 475.971C31.6171 476.142 32.5817 476.137 33.5674 475.953Z" fill="#F64A00"/>
<path d="M18.0998 436.819L17.8559 434.335L36.0086 432.553L36.2525 435.037L18.0998 436.819ZM13.0512 437.797C12.5629 437.845 12.1333 437.727 11.7623 437.442C11.3892 437.135 11.1787 436.738 11.1308 436.25C11.0828 435.761 11.212 435.331 11.5184 434.958C11.8247 434.585 12.2221 434.374 12.7104 434.326C13.1987 434.278 13.6294 434.407 14.0024 434.714C14.3543 435.022 14.5541 435.421 14.6021 435.909C14.65 436.397 14.5315 436.827 14.2463 437.198C13.9379 437.55 13.5395 437.75 13.0512 437.797Z" fill="#F64A00"/>
<path d="M32.4863 406.078C32.4731 405.119 32.2691 404.247 31.8743 403.463C31.4579 402.658 30.9151 401.972 30.2459 401.405C29.5767 400.838 28.8028 400.411 27.9241 400.125C27.0238 399.817 26.0723 399.67 25.0697 399.684C24.0885 399.697 23.1628 399.87 22.2926 400.202C21.4008 400.513 20.6282 400.961 19.9748 401.546C19.3002 402.131 18.7764 402.832 18.4036 403.648C18.0305 404.442 17.8505 405.319 17.8637 406.279C17.8772 407.261 18.0815 408.154 18.4766 408.959C18.8714 409.743 19.414 410.418 20.1045 410.985C20.7737 411.552 21.5585 411.989 22.4588 412.297C23.3375 412.583 24.2674 412.72 25.2487 412.706C26.2512 412.693 27.1984 412.53 28.0903 412.219C28.9604 411.887 29.7224 411.44 30.376 410.876C31.0294 410.291 31.5533 409.601 31.9477 408.806C32.3205 407.99 32.5001 407.081 32.4863 406.078ZM15.6559 406.31C15.6374 404.966 15.8767 403.746 16.3737 402.651C16.8491 401.535 17.5186 400.577 18.3824 399.776C19.2245 398.953 20.2186 398.321 21.3646 397.878C22.5103 397.415 23.7338 397.174 25.035 397.156C26.3362 397.138 27.5765 397.345 28.7559 397.777C29.9136 398.188 30.9354 398.792 31.8211 399.591C32.6852 400.368 33.3808 401.308 33.908 402.411C34.4136 403.492 34.6756 404.704 34.6941 406.048C34.7128 407.413 34.4845 408.654 34.0092 409.77C33.5124 410.886 32.8429 411.845 32.0005 412.646C31.1367 413.447 30.132 414.08 28.9863 414.543C27.8189 414.986 26.5846 415.216 25.2834 415.234C23.9822 415.252 22.7527 415.056 21.595 414.645C20.4369 414.213 19.4258 413.608 18.5617 412.83C17.6763 412.053 16.9807 411.113 16.4748 410.011C15.9476 408.909 15.6746 407.675 15.6559 406.31Z" fill="#F64A00"/>
<path d="M33.4343 374.278C32.8811 374.238 32.4269 374.013 32.0716 373.602C31.7164 373.191 31.5589 372.709 31.599 372.156C31.6391 371.603 31.8646 371.148 32.2753 370.793C32.6861 370.438 33.1681 370.28 33.7213 370.321C34.2745 370.361 34.7287 370.586 35.084 370.997C35.4392 371.408 35.5967 371.89 35.5566 372.443C35.5165 372.996 35.291 373.45 34.8803 373.806C34.4695 374.161 33.9875 374.318 33.4343 374.278ZM16.6654 372.356L10.2822 371.893L10.465 369.372L16.8483 369.835L28.3149 370.987L28.1784 372.87L16.6654 372.356Z" fill="#F64A00"/>
<path d="M18.9684 321.818L17.4905 328.8L15.3304 328.342L18.823 311.844L20.9831 312.301L19.5052 319.283L41.4509 323.929L40.914 326.464L18.9684 321.818Z" fill="#F64A00"/>
<path d="M34.3059 279.439L35.0594 277.093L52.4256 282.671L51.6721 285.017L48.8996 284.126C49.2283 284.568 49.5203 285.054 49.7758 285.584C50.0174 286.087 50.1989 286.638 50.3201 287.237C50.4479 287.816 50.4952 288.436 50.462 289.098C50.4556 289.746 50.3382 290.425 50.1099 291.136C49.7903 292.131 49.3208 293 48.7015 293.742C48.0887 294.464 47.3798 295.032 46.5747 295.445C45.7697 295.859 44.8852 296.101 43.9212 296.173C42.9572 296.244 41.9674 296.117 40.9519 295.79L30.1665 292.326L30.9298 289.95L41.5933 293.375C42.3042 293.603 43.0034 293.693 43.6911 293.645C44.3787 293.597 45.0144 293.432 45.5983 293.149C46.1618 292.859 46.6702 292.462 47.1234 291.958C47.5629 291.427 47.9 290.796 48.1349 290.065C48.3567 289.374 48.4229 288.645 48.3335 287.877C48.2441 287.108 48.0202 286.376 47.6617 285.678C47.283 284.974 46.7903 284.345 46.1838 283.791C45.557 283.232 44.817 282.815 43.9639 282.541L34.3059 279.439Z" fill="#F64A00"/>
<path d="M49.4864 245.631C49.257 245.788 49.0501 246.001 48.8658 246.27C48.6702 246.512 48.5138 246.77 48.3967 247.044C48.129 247.672 48.0043 248.373 48.0226 249.146C48.0493 249.9 48.2189 250.644 48.5312 251.381C48.8324 252.089 49.2693 252.75 49.8419 253.365C50.3949 253.972 51.0836 254.451 51.9078 254.803L61.2395 258.78L60.2733 261.047L43.494 253.895L44.4602 251.628L47.139 252.77C46.8523 252.3 46.6119 251.803 46.4175 251.28C46.212 250.728 46.0722 250.158 45.9982 249.57C45.9326 248.963 45.9426 248.341 46.0282 247.705C46.1025 247.041 46.286 246.365 46.5788 245.678C46.8214 245.109 47.1761 244.576 47.6429 244.079L49.4864 245.631Z" fill="#F64A00"/>
<path d="M72.6125 233.539L71.4418 235.707L55.3919 227.041L56.5625 224.873L59.1249 226.257C58.8827 225.762 58.6889 225.245 58.5436 224.706C58.3897 224.138 58.3029 223.558 58.2833 222.966C58.2739 222.354 58.3411 221.736 58.4848 221.111C58.62 220.456 58.8649 219.801 59.2196 219.144C59.7163 218.224 60.3319 217.465 61.0666 216.868C61.8114 216.252 62.6174 215.814 63.4846 215.555C64.3518 215.296 65.2658 215.22 66.2265 215.326C67.1873 215.433 68.1369 215.739 69.0755 216.246L79.0434 221.628L77.8576 223.824L68.0023 218.503C67.3453 218.149 66.6744 217.932 65.9896 217.853C65.3048 217.774 64.6589 217.825 64.0519 218.007C63.426 218.178 62.8485 218.484 62.3191 218.926C61.7812 219.339 61.3297 219.883 60.9649 220.559C60.6203 221.197 60.4215 221.902 60.3686 222.673C60.3157 223.445 60.411 224.211 60.6543 224.973C60.8788 225.725 61.2479 226.433 61.7615 227.098C62.2564 227.753 62.898 228.294 63.6864 228.719L72.6125 233.539Z" fill="#F64A00"/>
<path d="M94.6085 177.097C93.3813 176.173 92.259 175.128 91.2414 173.961C90.2067 172.782 89.3001 171.538 88.5217 170.231C87.7433 168.924 87.0972 167.583 86.5834 166.209C86.0654 164.804 85.701 163.408 85.4902 162.021L87.6033 161.449C87.8441 162.725 88.2151 164.006 88.7163 165.291C89.2132 166.546 89.8275 167.77 90.5592 168.961C91.2867 170.123 92.121 171.232 93.062 172.288C93.9988 173.313 95.0211 174.243 96.1289 175.077C97.2368 175.911 98.4216 176.643 99.6834 177.272C100.941 177.872 102.237 178.367 103.572 178.758C104.902 179.119 106.24 179.364 107.583 179.495C108.94 179.608 110.265 179.604 111.558 179.483L111.618 181.691C110.227 181.872 108.784 181.908 107.291 181.798C105.828 181.685 104.361 181.435 102.889 181.048C101.418 180.661 99.9811 180.14 98.5785 179.485C97.159 178.817 95.8356 178.021 94.6085 177.097Z" fill="#F64A00"/>
<path d="M126.497 151.937C127.446 150.925 128.12 149.817 128.519 148.612C128.918 147.377 129.066 146.127 128.966 144.862C128.849 143.583 128.485 142.335 127.873 141.116C127.26 139.898 126.425 138.793 125.367 137.801C124.309 136.808 123.153 136.045 121.898 135.512C120.643 134.978 119.382 134.701 118.113 134.682C116.829 134.647 115.592 134.875 114.4 135.366C113.207 135.827 112.136 136.563 111.188 137.574C110.239 138.585 109.565 139.709 109.167 140.944C108.753 142.164 108.605 143.414 108.721 144.694C108.836 145.943 109.2 147.176 109.813 148.394C110.425 149.612 111.26 150.717 112.318 151.71C113.376 152.702 114.532 153.465 115.787 153.999C117.042 154.532 118.304 154.824 119.573 154.874C120.841 154.894 122.079 154.666 123.287 154.19C124.478 153.699 125.549 152.948 126.497 151.937ZM109.554 136.041C110.751 134.766 112.094 133.817 113.584 133.196C115.072 132.545 116.601 132.225 118.171 132.235C119.756 132.229 121.32 132.542 122.865 133.172C124.408 133.771 125.833 134.684 127.14 135.91C128.447 137.136 129.457 138.508 130.169 140.024C130.897 141.526 131.308 143.067 131.404 144.649C131.499 146.2 131.276 147.747 130.737 149.288C130.196 150.8 129.328 152.193 128.131 153.469C126.919 154.76 125.57 155.732 124.081 156.383C122.592 157.004 121.062 157.325 119.493 157.344C117.923 157.334 116.359 157.022 114.8 156.408C113.255 155.778 111.83 154.85 110.523 153.624C109.216 152.398 108.207 151.041 107.495 149.555C106.783 148.038 106.371 146.497 106.261 144.931C106.165 143.349 106.387 141.802 106.928 140.291C107.467 138.749 108.343 137.333 109.554 136.041Z" fill="#F64A00"/>
<path d="M138.993 107.173L140.846 105.647L164.008 112.726L151.169 97.142L153.071 95.5753L168.738 114.593L166.886 116.119L143.723 109.039L156.562 124.624L154.66 126.191L138.993 107.173Z" fill="#F64A00"/>
<path d="M188.623 86.6722C189.476 87.9494 190.196 89.3155 190.783 90.7705C191.359 92.2077 191.798 93.6717 192.101 95.1625C192.404 96.6532 192.562 98.1382 192.576 99.6174C192.601 101.114 192.492 102.546 192.251 103.913L190.05 103.729C190.244 102.445 190.314 101.128 190.259 99.7793C190.205 98.4304 190.026 97.0874 189.723 95.7505C189.426 94.384 189.004 93.062 188.459 91.7845C187.919 90.4774 187.264 89.2473 186.494 88.0942C185.724 86.9412 184.844 85.874 183.855 84.8928C182.872 83.8819 181.812 82.9865 180.675 82.2066C179.544 81.397 178.366 80.7088 177.141 80.142C175.904 79.5573 174.655 79.1088 173.394 78.7964L174.085 76.719C175.44 77.0195 176.804 77.4679 178.177 78.0642C179.539 78.6427 180.85 79.3574 182.111 80.2083C183.372 81.0591 184.562 82.0343 185.682 83.1337C186.789 84.2155 187.77 85.395 188.623 86.6722Z" fill="#F64A00"/>
<path d="M225.877 51.5749L219.435 54.6448L218.485 52.6515L233.709 45.3967L234.658 47.3899L228.217 50.4598L237.867 70.7099L235.527 71.825L225.877 51.5749Z" fill="#F64A00"/>
<path d="M264.549 58.8933L262.228 59.7209L253.597 35.5178L255.918 34.6902L259.401 44.4558C259.551 43.9264 259.753 43.4127 260.006 42.9149C260.272 42.3898 260.596 41.9006 260.978 41.4473C261.38 40.9869 261.843 40.5723 262.369 40.2038C262.907 39.808 263.528 39.4847 264.231 39.2339C265.216 38.8828 266.181 38.7311 267.127 38.7789C268.092 38.8196 268.984 39.0338 269.802 39.4216C270.62 39.8095 271.35 40.3645 271.992 41.0866C272.635 41.8087 273.135 42.6722 273.494 43.6769L277.299 54.3467L274.948 55.1851L271.186 44.6358C270.935 43.9325 270.581 43.3224 270.125 42.8056C269.669 42.2888 269.155 41.8946 268.583 41.6231C268.003 41.3315 267.369 41.1727 266.68 41.1465C266.004 41.0931 265.304 41.1954 264.581 41.4533C263.898 41.697 263.278 42.0877 262.723 42.6256C262.167 43.1635 261.725 43.7968 261.396 44.5257C261.06 45.2344 260.86 46.0078 260.796 46.8458C260.726 47.6638 260.841 48.4947 261.142 49.3386L264.549 58.8933Z" fill="#F64A00"/>
<path d="M298.923 38.7772C299.251 39.7735 299.707 40.6183 300.291 41.3115C300.875 42.0047 301.514 42.5638 302.209 42.9889C302.919 43.3883 303.662 43.6482 304.437 43.7687C305.228 43.8634 305.987 43.8234 306.713 43.6485C307.708 43.4087 308.646 42.9304 309.527 42.2136C310.407 41.4968 311.106 40.6154 311.622 39.5694L313.676 40.7203C312.982 42.0286 312.104 43.118 311.041 43.9885C309.973 44.8382 308.723 45.4354 307.292 45.7802C306.006 46.0899 304.766 46.1362 303.573 45.9189C302.375 45.6809 301.281 45.2421 300.293 44.6023C299.321 43.9368 298.482 43.0966 297.777 42.0815C297.072 41.0664 296.564 39.916 296.255 38.6301C295.95 37.3649 295.87 36.1224 296.015 34.9025C296.181 33.6777 296.537 32.5605 297.084 31.551C297.646 30.5158 298.389 29.6348 299.311 28.908C300.249 28.1555 301.34 27.6293 302.584 27.3296C303.787 27.0398 304.954 27.011 306.085 27.2433C307.232 27.4497 308.276 27.8675 309.218 28.4965C310.154 29.1048 310.96 29.8982 311.635 30.8768C312.304 31.8346 312.786 32.9253 313.081 34.149C313.126 34.3357 313.163 34.5352 313.192 34.7476C313.217 34.9392 313.23 35.1334 313.234 35.3301L298.923 38.7772ZM303.101 29.4762C302.417 29.641 301.778 29.9486 301.184 30.3988C300.585 30.8283 300.079 31.3672 299.664 32.0156C299.245 32.6433 298.926 33.3675 298.707 34.1884C298.503 34.9834 298.434 35.834 298.498 36.7401L310.351 33.8849C310.043 33.0596 309.627 32.3368 309.105 31.7165C308.598 31.0706 308.026 30.5611 307.387 30.1883C306.765 29.7897 306.086 29.5251 305.353 29.3946C304.619 29.2641 303.869 29.2913 303.101 29.4762Z" fill="#F64A00"/>
<path d="M359.284 36.0609L356.762 36.2481L354.938 11.6757L362.341 11.126C363.618 11.0312 364.779 11.1161 365.826 11.3807C366.892 11.6224 367.81 12.0249 368.579 12.5881C369.369 13.1498 370 13.8624 370.47 14.7259C370.939 15.5682 371.216 16.5531 371.299 17.6806C371.427 19.4039 371.087 20.8731 370.279 22.0883C369.471 23.3035 368.286 24.2043 366.725 24.7909L373.006 35.0419L370.197 35.2505L364.174 25.4296L358.525 25.849L359.284 36.0609ZM368.715 17.8726C368.596 16.277 367.984 15.0924 366.878 14.3188C365.771 13.5239 364.281 13.196 362.409 13.335L357.622 13.6905L358.359 23.6151L363.146 23.2597C365.018 23.1207 366.445 22.5976 367.426 21.6905C368.405 20.7621 368.835 19.4895 368.715 17.8726Z" fill="#F64A00"/>
<path d="M394.725 24.9535C394.772 23.653 395.04 22.4352 395.529 21.3001C396.018 20.165 396.662 19.1849 397.46 18.3598C398.259 17.5134 399.19 16.8639 400.252 16.4112C401.337 15.938 402.487 15.7233 403.702 15.7671C405.066 15.8164 406.313 16.1815 407.441 16.8626C408.57 17.5224 409.52 18.3999 410.292 19.4951L410.404 16.3931L412.898 16.4831L412.242 34.6793L409.747 34.5893L409.858 31.5193C409.009 32.5774 407.997 33.3948 406.824 33.9715C405.65 34.5482 404.381 34.812 403.017 34.7628C401.801 34.7189 400.67 34.4326 399.621 33.9038C398.595 33.3545 397.714 32.6396 396.977 31.7591C396.241 30.8573 395.67 29.8227 395.264 28.6553C394.858 27.4879 394.678 26.254 394.725 24.9535ZM397.283 25.0458C397.247 26.0478 397.383 27.0027 397.692 27.9104C398.002 28.7968 398.432 29.5808 398.984 30.2625C399.536 30.9442 400.189 31.4907 400.942 31.9021C401.717 32.3144 402.542 32.5362 403.416 32.5678C404.29 32.5993 405.118 32.437 405.899 32.081C406.702 31.7257 407.403 31.2279 408.002 30.5878C408.602 29.9477 409.088 29.1967 409.46 28.3349C409.834 27.4518 410.039 26.5092 410.075 25.5072C410.111 24.5052 409.975 23.5503 409.666 22.6426C409.357 21.7349 408.927 20.9402 408.375 20.2585C407.823 19.5769 407.16 19.0299 406.385 18.6177C405.631 18.2063 404.817 17.9848 403.943 17.9533C403.069 17.9217 402.231 18.0836 401.428 18.4389C400.647 18.795 399.956 19.2931 399.357 19.9332C398.757 20.5733 398.271 21.335 397.897 22.2181C397.524 23.1012 397.319 24.0438 397.283 25.0458Z" fill="#F64A00"/>
<path d="M436.289 27.1419C436.481 25.8548 436.883 24.6747 437.497 23.6015C438.11 22.5283 438.859 21.6264 439.745 20.8959C440.634 20.1442 441.631 19.6029 442.738 19.272C443.868 18.9232 445.035 18.8386 446.238 19.0182C447.588 19.2198 448.785 19.7222 449.83 20.5253C450.878 21.3074 451.724 22.2857 452.369 23.4604L453.933 12.9846L456.402 13.3532L452.606 38.7674L450.138 38.3988L450.592 35.3605C449.629 36.3168 448.533 37.0159 447.302 37.4576C446.071 37.8993 444.78 38.0194 443.43 37.8177C442.227 37.6381 441.135 37.2269 440.152 36.5841C439.194 35.9233 438.398 35.1142 437.765 34.1568C437.134 33.1783 436.683 32.0863 436.41 30.8808C436.137 29.6752 436.096 28.4289 436.289 27.1419ZM438.821 27.52C438.672 28.5116 438.701 29.4758 438.906 30.4123C439.115 31.3278 439.455 32.1552 439.927 32.8943C440.399 33.6335 440.986 34.2496 441.689 34.7429C442.413 35.2392 443.208 35.552 444.073 35.6812C444.938 35.8104 445.778 35.7418 446.595 35.4754C447.432 35.2122 448.185 34.7961 448.852 34.2271C449.519 33.6581 450.086 32.9663 450.553 32.1516C451.023 31.3158 451.332 30.4021 451.48 29.4105C451.628 28.4188 451.6 27.4547 451.394 26.5181C451.189 25.5815 450.85 24.7436 450.378 24.0045C449.906 23.2653 449.308 22.6475 448.585 22.1512C447.882 21.658 447.098 21.3468 446.233 21.2176C445.368 21.0884 444.516 21.1554 443.679 21.4186C442.863 21.685 442.121 22.1027 441.453 22.6717C440.786 23.2407 440.217 23.9431 439.748 24.7788C439.278 25.6146 438.969 26.5283 438.821 27.52Z" fill="#F64A00"/>
<path d="M480.859 25.6625L483.287 26.2421L479.051 43.9834L476.623 43.4038L480.859 25.6625ZM481.581 20.571C481.695 20.0937 481.947 19.7263 482.338 19.4686C482.749 19.2158 483.193 19.1464 483.671 19.2604C484.148 19.3743 484.513 19.637 484.766 20.0482C485.018 20.4595 485.088 20.9038 484.974 21.381C484.86 21.8583 484.597 22.2233 484.186 22.476C483.78 22.708 483.338 22.767 482.861 22.653C482.383 22.5391 482.016 22.2869 481.758 21.8963C481.526 21.49 481.467 21.0482 481.581 20.571Z" fill="#F64A00"/>
<path d="M505.227 49.2889C506.138 49.5896 507.029 49.6811 507.899 49.5636C508.796 49.4325 509.621 49.1431 510.376 48.6954C511.13 48.2477 511.785 47.6553 512.343 46.9182C512.928 46.1675 513.377 45.316 513.691 44.3637C513.998 43.4318 514.137 42.5003 514.107 41.5694C514.104 40.625 513.932 39.7485 513.592 38.9401C513.259 38.1114 512.767 37.3878 512.118 36.7692C511.488 36.1573 510.718 35.7011 509.806 35.4005C508.874 35.0932 507.963 34.9949 507.073 35.1057C506.203 35.2233 505.388 35.516 504.627 35.9839C503.873 36.4316 503.204 37.0308 502.619 37.7816C502.062 38.5187 501.629 39.3533 501.322 40.2852C501.008 41.2375 500.852 42.1858 500.855 43.1303C500.885 44.0612 501.06 44.9275 501.38 45.7293C501.72 46.5377 502.201 47.258 502.824 47.8901C503.474 48.5087 504.274 48.9749 505.227 49.2889ZM510.498 33.3035C511.774 33.7244 512.849 34.3483 513.722 35.1753C514.622 35.9886 515.309 36.9343 515.785 38.0121C516.288 39.0764 516.561 40.2224 516.606 41.45C516.67 42.6844 516.499 43.9195 516.092 45.1554C515.684 46.3913 515.084 47.4962 514.291 48.4702C513.525 49.4307 512.62 50.1993 511.576 50.7761C510.559 51.3394 509.444 51.6904 508.23 51.8293C507.043 51.9545 505.812 51.8067 504.535 51.3859C503.239 50.9583 502.14 50.3379 501.24 49.5245C500.347 48.6908 499.659 47.7452 499.177 46.6876C498.701 45.6098 498.431 44.4537 498.366 43.2193C498.329 41.9714 498.513 40.7295 498.921 39.4936C499.328 38.2577 499.915 37.1596 500.681 36.1991C501.467 35.2453 502.369 34.4868 503.386 33.9236C504.409 33.3401 505.525 32.9891 506.732 32.8705C507.946 32.7316 509.201 32.876 510.498 33.3035Z" fill="#F64A00"/>
<path d="M534.978 60.5574C535.197 60.0475 535.558 59.6917 536.062 59.4899C536.566 59.2881 537.073 59.2963 537.583 59.5147C538.093 59.7331 538.449 60.0944 538.651 60.5985C538.852 61.1027 538.844 61.6097 538.626 62.1196C538.407 62.6295 538.046 62.9853 537.542 63.1871C537.038 63.3889 536.531 63.3806 536.021 63.1623C535.511 62.9439 535.155 62.5826 534.953 62.0785C534.752 61.5743 534.76 61.0673 534.978 60.5574ZM542.265 45.3325L544.784 39.4493L547.108 40.4446L544.589 46.3277L539.759 56.7914L538.023 56.0481L542.265 45.3325Z" fill="#F64A00"/>
<path d="M589.288 63.9933L583.17 60.3192L584.307 58.4263L598.764 67.1092L597.627 69.0021L591.51 65.3279L579.96 84.558L577.738 83.2235L589.288 63.9933Z" fill="#F64A00"/>
<path d="M624.347 92.315L626.319 93.7925L615.382 108.39L613.41 106.912L615.156 104.582C614.631 104.748 614.077 104.866 613.492 104.935C612.938 104.999 612.357 104.991 611.751 104.91C611.163 104.842 610.561 104.684 609.946 104.437C609.336 104.22 608.732 103.887 608.135 103.439C607.298 102.813 606.63 102.086 606.131 101.258C605.648 100.443 605.343 99.588 605.214 98.692C605.086 97.7961 605.145 96.8809 605.392 95.9464C605.639 95.0118 606.082 94.1178 606.722 93.2641L613.514 84.1985L615.512 85.6952L608.796 94.6583C608.348 95.2559 608.035 95.8875 607.856 96.5532C607.677 97.2189 607.627 97.8738 607.704 98.5181C607.794 99.1452 608.003 99.7553 608.332 100.348C608.69 100.937 609.177 101.461 609.792 101.922C610.372 102.357 611.04 102.657 611.795 102.823C612.551 102.989 613.316 103.017 614.093 102.905C614.882 102.777 615.637 102.516 616.358 102.124C617.092 101.714 617.727 101.15 618.265 100.433L624.347 92.315Z" fill="#F64A00"/>
<path d="M651.355 117.693C651.281 117.424 651.147 117.159 650.953 116.897C650.788 116.634 650.595 116.402 650.374 116.201C649.868 115.743 649.246 115.397 648.509 115.162C647.788 114.942 647.029 114.859 646.231 114.914C645.464 114.968 644.696 115.165 643.927 115.506C643.173 115.831 642.496 116.325 641.895 116.99L635.091 124.514L633.264 122.861L645.497 109.332L647.325 110.985L645.372 113.145C645.91 113.027 646.458 112.962 647.016 112.949C647.604 112.934 648.188 112.988 648.769 113.11C649.364 113.246 649.949 113.459 650.522 113.747C651.126 114.034 651.705 114.428 652.258 114.928C652.717 115.343 653.105 115.852 653.423 116.456L651.355 117.693Z" fill="#F64A00"/>
<path d="M655.242 143.498L653.575 141.684L667.002 129.338L668.669 131.152L666.526 133.123C667.072 133.056 667.624 133.041 668.181 133.079C668.768 133.119 669.345 133.226 669.911 133.401C670.492 133.592 671.055 133.857 671.599 134.197C672.174 134.538 672.713 134.983 673.219 135.533C673.926 136.302 674.443 137.132 674.768 138.021C675.107 138.926 675.258 139.831 675.22 140.735C675.182 141.639 674.956 142.528 674.542 143.402C674.128 144.275 673.528 145.073 672.743 145.795L664.404 153.462L662.715 151.625L670.959 144.044C671.509 143.539 671.933 142.975 672.231 142.354C672.528 141.732 672.691 141.105 672.717 140.472C672.759 139.824 672.658 139.178 672.414 138.534C672.199 137.891 671.832 137.286 671.312 136.721C670.821 136.187 670.219 135.769 669.507 135.468C668.795 135.166 668.04 135.006 667.24 134.988C666.456 134.955 665.666 135.073 664.87 135.341C664.089 135.595 663.369 136.026 662.71 136.632L655.242 143.498Z" fill="#F64A00"/>
<path d="M701.423 182.701C702.697 181.842 704.051 181.122 705.486 180.54C706.938 179.947 708.409 179.496 709.898 179.186C711.388 178.876 712.866 178.703 714.333 178.666C715.83 178.634 717.269 178.745 718.648 178.998L718.5 181.182C717.215 180.994 715.884 180.927 714.505 180.981C713.156 181.042 711.8 181.223 710.434 181.526C709.099 181.835 707.779 182.262 706.474 182.807C705.199 183.358 703.986 184.021 702.836 184.797C701.687 185.572 700.608 186.453 699.602 187.441C698.625 188.434 697.734 189.498 696.929 190.632C696.154 191.772 695.486 192.956 694.924 194.184C694.375 195.429 693.946 196.683 693.639 197.945L691.532 197.281C691.815 195.907 692.252 194.532 692.842 193.156C693.427 191.81 694.142 190.505 694.987 189.24C695.833 187.975 696.794 186.787 697.871 185.675C698.965 184.551 700.15 183.559 701.423 182.701Z" fill="#F64A00"/>
<path d="M714.806 221.052C715.453 222.279 716.281 223.277 717.29 224.048C718.327 224.827 719.461 225.375 720.689 225.693C721.936 226 723.235 226.063 724.586 225.881C725.937 225.699 727.255 225.27 728.538 224.594C729.821 223.918 730.92 223.073 731.833 222.061C732.747 221.049 733.42 219.947 733.852 218.755C734.304 217.552 734.492 216.307 734.416 215.021C734.37 213.743 734.024 212.491 733.377 211.264C732.73 210.037 731.888 209.034 730.851 208.255C729.832 207.466 728.699 206.917 727.451 206.61C726.233 206.312 724.948 206.253 723.597 206.435C722.246 206.617 720.929 207.046 719.645 207.722C718.362 208.398 717.264 209.243 716.35 210.255C715.437 211.267 714.749 212.364 714.288 213.548C713.855 214.741 713.667 215.985 713.724 217.282C713.799 218.569 714.16 219.825 714.806 221.052ZM735.359 210.22C736.174 211.767 736.633 213.346 736.734 214.957C736.864 216.576 736.668 218.126 736.147 219.607C735.635 221.107 734.829 222.484 733.73 223.739C732.66 225.002 731.332 226.052 729.747 226.887C728.161 227.723 726.536 228.23 724.869 228.409C723.213 228.606 721.622 228.492 720.095 228.067C718.598 227.651 717.208 226.936 715.927 225.923C714.675 224.92 713.641 223.644 712.825 222.096C711.999 220.53 711.521 218.937 711.391 217.317C711.29 215.707 711.486 214.157 711.979 212.667C712.501 211.186 713.306 209.809 714.395 208.536C715.494 207.281 716.837 206.236 718.422 205.401C720.007 204.565 721.619 204.054 723.256 203.866C724.922 203.687 726.513 203.801 728.03 204.207C729.556 204.633 730.946 205.347 732.198 206.351C733.48 207.364 734.533 208.653 735.359 210.22Z" fill="#F64A00"/>
<path d="M753.046 247.465L753.884 249.714L739.637 269.301L758.557 262.247L759.417 264.556L736.33 273.163L735.491 270.915L749.739 251.328L730.819 258.381L729.958 256.072L753.046 247.465Z" fill="#F64A00"/>
<path d="M756.238 301.067C754.752 301.457 753.226 301.692 751.659 301.773C750.113 301.848 748.586 301.786 747.078 301.586C745.569 301.386 744.114 301.051 742.711 300.581C741.288 300.117 739.97 299.548 738.756 298.874L739.648 296.853C740.799 297.455 742.021 297.951 743.314 298.339C744.607 298.727 745.935 298.997 747.297 299.146C748.686 299.311 750.073 299.344 751.459 299.245C752.87 299.161 754.247 298.943 755.588 298.591C756.929 298.239 758.225 297.756 759.475 297.141C760.751 296.541 761.944 295.831 763.052 295.011C764.186 294.206 765.221 293.317 766.156 292.343C767.112 291.364 767.944 290.33 768.65 289.24L770.389 290.571C769.663 291.754 768.794 292.897 767.782 294.001C766.791 295.099 765.688 296.105 764.472 297.02C763.257 297.935 761.947 298.742 760.542 299.441C759.158 300.135 757.724 300.677 756.238 301.067Z" fill="#F64A00"/>
<path d="M777.265 347.731L776.464 340.64L778.658 340.392L780.551 357.15L778.357 357.398L777.556 350.307L755.266 352.824L754.975 350.248L777.265 347.731Z" fill="#F64A00"/>
<path d="M757.733 381.902L757.708 379.438L783.402 379.173L783.428 381.637L773.06 381.744C773.511 382.059 773.931 382.418 774.319 382.819C774.729 383.241 775.086 383.707 775.39 384.216C775.694 384.746 775.934 385.32 776.112 385.937C776.31 386.575 776.413 387.267 776.421 388.014C776.432 389.059 776.26 390.021 775.907 390.899C775.553 391.799 775.06 392.572 774.426 393.218C773.793 393.865 773.03 394.374 772.138 394.746C771.246 395.118 770.266 395.309 769.2 395.32L757.872 395.437L757.847 392.941L769.046 392.826C769.793 392.818 770.485 392.683 771.122 392.42C771.759 392.158 772.3 391.8 772.743 391.348C773.208 390.895 773.565 390.347 773.814 389.705C774.085 389.083 774.217 388.388 774.209 387.62C774.201 386.895 774.034 386.182 773.707 385.481C773.379 384.781 772.925 384.156 772.343 383.607C771.783 383.058 771.117 382.617 770.346 382.284C769.595 381.95 768.772 381.788 767.876 381.797L757.733 381.902Z" fill="#F64A00"/>
<path d="M765.537 420.957C764.488 420.942 763.541 421.097 762.695 421.423C761.849 421.749 761.112 422.171 760.484 422.689C759.875 423.231 759.387 423.848 759.02 424.542C758.672 425.258 758.463 425.988 758.391 426.732C758.293 427.751 758.439 428.794 758.83 429.86C759.22 430.926 759.826 431.874 760.646 432.703L758.888 434.27C757.878 433.187 757.135 432.001 756.658 430.712C756.203 429.425 756.046 428.049 756.187 426.584C756.314 425.267 756.675 424.08 757.269 423.023C757.885 421.968 758.656 421.078 759.583 420.352C760.53 419.65 761.598 419.132 762.787 418.796C763.977 418.46 765.23 418.356 766.546 418.482C767.842 418.607 769.042 418.937 770.148 419.472C771.252 420.028 772.192 420.729 772.968 421.575C773.763 422.445 774.354 423.434 774.74 424.542C775.145 425.674 775.287 426.878 775.164 428.152C775.046 429.383 774.693 430.496 774.104 431.489C773.535 432.506 772.799 433.357 771.898 434.042C771.017 434.729 770.004 435.232 768.859 435.55C767.735 435.871 766.547 435.971 765.294 435.85C765.103 435.832 764.902 435.802 764.692 435.76C764.503 435.721 764.315 435.67 764.128 435.609L765.537 420.957ZM772.967 427.94C773.034 427.24 772.952 426.535 772.72 425.827C772.509 425.121 772.165 424.466 771.687 423.863C771.23 423.262 770.65 422.724 769.945 422.249C769.26 421.797 768.479 421.454 767.601 421.22L766.434 433.356C767.315 433.333 768.134 433.176 768.891 432.885C769.666 432.617 770.335 432.241 770.895 431.76C771.475 431.301 771.947 430.746 772.309 430.095C772.672 429.444 772.891 428.726 772.967 427.94Z" fill="#F64A00"/>
<path d="M748.417 478.903L749.062 476.458L772.886 482.748L770.991 489.926C770.664 491.164 770.205 492.234 769.613 493.137C769.037 494.066 768.357 494.802 767.574 495.346C766.785 495.91 765.906 496.273 764.936 496.437C763.987 496.605 762.966 496.545 761.873 496.257C760.202 495.815 758.924 495.015 758.039 493.854C757.154 492.694 756.689 491.28 756.643 489.613L744.904 492.207L745.623 489.484L756.872 486.993L758.318 481.517L748.417 478.903ZM762.534 493.75C764.081 494.159 765.401 493.967 766.493 493.174C767.605 492.386 768.401 491.085 768.88 489.27L770.106 484.629L760.483 482.088L759.258 486.729C758.779 488.545 758.808 490.064 759.346 491.287C759.904 492.515 760.967 493.337 762.534 493.75Z" fill="#F64A00"/>
<path d="M747.357 516.029C748.571 516.497 749.635 517.148 750.548 517.981C751.462 518.813 752.178 519.741 752.698 520.765C753.237 521.797 753.548 522.888 753.629 524.04C753.723 525.22 753.551 526.377 753.113 527.511C752.622 528.785 751.87 529.844 750.858 530.688C749.866 531.54 748.727 532.152 747.44 532.525L750.335 533.642L749.437 535.971L732.45 529.415L733.348 527.087L736.214 528.193C735.491 527.045 735.048 525.822 734.886 524.524C734.724 523.227 734.888 521.941 735.38 520.667C735.818 519.533 736.457 518.557 737.299 517.738C738.153 516.947 739.117 516.347 740.189 515.938C741.282 515.536 742.446 515.334 743.682 515.331C744.918 515.327 746.143 515.56 747.357 516.029ZM746.435 518.417C745.5 518.056 744.553 517.873 743.594 517.869C742.655 517.873 741.774 518.024 740.949 518.323C740.125 518.623 739.395 519.062 738.761 519.64C738.118 520.238 737.639 520.945 737.324 521.761C737.01 522.577 736.893 523.412 736.975 524.267C737.049 525.142 737.291 525.967 737.7 526.742C738.11 527.518 738.661 528.222 739.354 528.856C740.067 529.497 740.892 529.998 741.827 530.359C742.762 530.72 743.71 530.902 744.668 530.906C745.627 530.91 746.519 530.763 747.343 530.464C748.167 530.164 748.901 529.716 749.543 529.118C750.178 528.539 750.653 527.842 750.968 527.026C751.283 526.21 751.403 525.365 751.329 524.49C751.247 523.635 751.002 522.82 750.592 522.045C750.182 521.269 749.621 520.561 748.908 519.92C748.195 519.279 747.371 518.778 746.435 518.417Z" fill="#F64A00"/>
<path d="M731.732 554.606C732.886 555.207 733.87 555.973 734.684 556.902C735.499 557.832 736.107 558.835 736.509 559.91C736.929 560.996 737.116 562.115 737.068 563.269C737.029 564.451 736.728 565.582 736.166 566.66C735.535 567.871 734.67 568.839 733.57 569.565C732.488 570.3 731.288 570.781 729.967 571.007L739.36 575.903L738.206 578.116L715.42 566.239L716.573 564.026L719.297 565.446C718.707 564.224 718.404 562.959 718.388 561.652C718.372 560.344 718.679 559.085 719.31 557.874C719.872 556.796 720.618 555.897 721.546 555.178C722.483 554.488 723.507 554 724.619 553.713C725.75 553.436 726.929 553.365 728.158 553.501C729.386 553.636 730.578 554.004 731.732 554.606ZM730.548 556.876C729.659 556.412 728.739 556.125 727.786 556.013C726.853 555.912 725.96 555.964 725.107 556.169C724.255 556.374 723.48 556.728 722.785 557.232C722.08 557.754 721.525 558.403 721.12 559.179C720.716 559.954 720.507 560.772 720.492 561.63C720.468 562.507 720.616 563.354 720.936 564.171C721.256 564.987 721.725 565.749 722.343 566.456C722.98 567.173 723.743 567.763 724.632 568.226C725.521 568.69 726.442 568.977 727.394 569.089C728.347 569.2 729.249 569.153 730.102 568.948C730.955 568.743 731.734 568.379 732.439 567.857C733.134 567.353 733.684 566.714 734.089 565.938C734.493 565.163 734.707 564.336 734.731 563.459C734.746 562.6 734.593 561.763 734.273 560.946C733.953 560.13 733.474 559.363 732.837 558.646C732.201 557.929 731.438 557.339 730.548 556.876Z" fill="#F64A00"/>
<path d="M718.593 597.221L717.253 599.327L701.863 589.536L703.203 587.43L718.593 597.221ZM723.17 599.564C723.584 599.828 723.849 600.186 723.966 600.639C724.07 601.11 723.991 601.553 723.728 601.967C723.464 602.381 723.097 602.64 722.626 602.745C722.154 602.85 721.712 602.771 721.298 602.507C720.884 602.244 720.625 601.877 720.52 601.405C720.433 600.946 720.521 600.509 720.785 600.095C721.048 599.681 721.406 599.416 721.86 599.299C722.319 599.213 722.756 599.301 723.17 599.564Z" fill="#F64A00"/>
<path d="M688.311 612.55C687.729 613.313 687.352 614.126 687.179 614.986C687.011 615.877 687.015 616.752 687.192 617.61C687.369 618.469 687.716 619.283 688.231 620.05C688.75 620.847 689.408 621.55 690.206 622.157C690.986 622.752 691.822 623.187 692.712 623.462C693.605 623.767 694.49 623.891 695.365 623.833C696.257 623.788 697.101 623.56 697.898 623.148C698.682 622.752 699.364 622.173 699.946 621.409C700.54 620.628 700.93 619.799 701.116 618.921C701.289 618.061 701.278 617.194 701.084 616.322C700.906 615.464 700.558 614.635 700.039 613.838C699.524 613.071 698.876 612.39 698.096 611.795C697.298 611.188 696.452 610.731 695.558 610.426C694.668 610.151 693.792 610.034 692.93 610.074C692.055 610.132 691.217 610.352 690.417 610.734C689.62 611.147 688.918 611.752 688.311 612.55ZM701.703 622.746C700.888 623.816 699.948 624.628 698.882 625.184C697.819 625.769 696.701 626.111 695.527 626.209C694.357 626.337 693.184 626.222 692.009 625.863C690.821 625.522 689.71 624.957 688.674 624.169C687.639 623.38 686.79 622.452 686.128 621.385C685.47 620.348 685.038 619.242 684.834 618.067C684.633 616.922 684.665 615.753 684.929 614.56C685.198 613.398 685.74 612.281 686.554 611.212C687.381 610.126 688.326 609.29 689.388 608.705C690.467 608.132 691.586 607.79 692.743 607.679C693.917 607.581 695.098 607.703 696.286 608.044C697.478 608.416 698.592 608.995 699.627 609.784C700.662 610.572 701.509 611.485 702.167 612.522C702.812 613.577 703.235 614.676 703.436 615.821C703.654 616.979 703.622 618.148 703.34 619.328C703.076 620.52 702.53 621.66 701.703 622.746Z" fill="#F64A00"/>
<path d="M667.954 636.999C668.365 637.372 668.583 637.829 668.61 638.372C668.636 638.914 668.463 639.391 668.09 639.802C667.717 640.212 667.26 640.431 666.717 640.457C666.175 640.484 665.698 640.31 665.287 639.938C664.877 639.565 664.658 639.107 664.632 638.565C664.606 638.022 664.779 637.546 665.151 637.135C665.524 636.724 665.982 636.506 666.524 636.479C667.067 636.453 667.543 636.626 667.954 636.999ZM679.97 648.853L684.709 653.154L683.01 655.026L678.271 650.725L669.955 642.747L671.223 641.349L679.97 648.853Z" fill="#F64A00"/>
<path d="M646.992 687.217L652.46 682.633L653.879 684.325L640.956 695.159L639.537 693.467L645.006 688.883L630.594 671.692L632.581 670.027L646.992 687.217Z" fill="#F64A00"/>
<path d="M608.784 711.122L606.744 712.504L596.513 697.404L598.553 696.022L600.186 698.432C600.2 697.882 600.269 697.319 600.395 696.744C600.515 696.199 600.712 695.653 600.986 695.107C601.243 694.572 601.588 694.055 602.022 693.555C602.427 693.049 602.938 692.586 603.556 692.168C604.421 691.581 605.327 691.187 606.272 690.985C607.199 690.794 608.108 690.784 608.996 690.955C609.885 691.126 610.731 691.481 611.534 692.019C612.337 692.557 613.037 693.268 613.636 694.151L619.99 703.529L617.924 704.929L611.641 695.657C611.222 695.039 610.727 694.537 610.157 694.15C609.586 693.764 608.983 693.503 608.349 693.365C607.727 693.246 607.082 693.245 606.414 693.362C605.741 693.509 605.086 693.798 604.45 694.229C603.85 694.636 603.348 695.169 602.945 695.829C602.541 696.489 602.266 697.204 602.117 697.974C601.981 698.762 601.981 699.561 602.118 700.37C602.266 701.198 602.591 701.982 603.094 702.724L608.784 711.122Z" fill="#F64A00"/>
<path d="M575.985 728.375C576.263 728.393 576.557 728.353 576.868 728.254C577.171 728.185 577.453 728.078 577.715 727.934C578.313 727.605 578.843 727.13 579.305 726.51C579.749 725.901 580.075 725.21 580.283 724.438C580.483 723.695 580.547 722.904 580.475 722.067C580.414 721.248 580.167 720.447 579.735 719.662L574.842 710.776L577 709.587L585.799 725.565L583.64 726.754L582.236 724.203C582.171 724.75 582.054 725.289 581.885 725.821C581.706 726.382 581.465 726.916 581.161 727.425C580.838 727.944 580.446 728.427 579.987 728.875C579.519 729.352 578.958 729.771 578.304 730.131C577.762 730.429 577.154 730.63 576.48 730.733L575.985 728.375Z" fill="#F64A00"/>
<path d="M550.323 723.633L552.582 722.648L559.873 739.368L557.614 740.353L556.45 737.683C556.336 738.222 556.17 738.748 555.952 739.262C555.723 739.804 555.433 740.315 555.083 740.793C554.714 741.28 554.28 741.725 553.781 742.129C553.271 742.561 552.674 742.926 551.989 743.224C551.031 743.642 550.079 743.86 549.132 743.877C548.166 743.903 547.261 743.75 546.419 743.419C545.576 743.089 544.81 742.585 544.119 741.909C543.429 741.232 542.87 740.405 542.444 739.428L537.916 729.044L540.204 728.046L544.681 738.312C544.979 738.997 545.374 739.581 545.864 740.066C546.355 740.55 546.895 740.908 547.484 741.139C548.083 741.391 548.726 741.506 549.415 741.484C550.093 741.491 550.784 741.341 551.488 741.034C552.153 740.744 552.744 740.312 553.262 739.737C553.779 739.162 554.177 738.5 554.455 737.751C554.742 737.02 554.888 736.235 554.894 735.395C554.908 734.574 554.736 733.753 554.378 732.931L550.323 723.633Z" fill="#F64A00"/>
<path d="M498.201 754.502C498.598 755.986 498.837 757.501 498.918 759.047C499.005 760.613 498.952 762.151 498.759 763.66C498.566 765.169 498.248 766.623 497.804 768.022C497.346 769.447 496.772 770.771 496.083 771.993L494.066 771.14C494.664 769.987 495.161 768.75 495.559 767.429C495.942 766.134 496.213 764.792 496.372 763.403C496.516 762.04 496.543 760.653 496.453 759.241C496.348 757.856 496.117 756.494 495.759 755.154C495.401 753.814 494.92 752.508 494.314 751.234C493.694 749.986 492.979 748.797 492.169 747.667C491.344 746.562 490.443 745.544 489.466 744.613C488.468 743.687 487.422 742.873 486.33 742.171L487.644 740.396C488.851 741.112 490.008 741.973 491.116 742.98C492.198 743.971 493.199 745.073 494.119 746.285C495.039 747.496 495.849 748.793 496.548 750.174C497.254 751.575 497.805 753.018 498.201 754.502Z" fill="#F64A00"/>
<path d="M457.583 754.644C456.212 754.855 454.998 755.312 453.941 756.014C452.866 756.741 451.978 757.633 451.277 758.691C450.58 759.77 450.097 760.977 449.828 762.314C449.559 763.65 449.535 765.035 449.755 766.469C449.976 767.903 450.416 769.217 451.075 770.41C451.733 771.604 452.556 772.6 453.542 773.398C454.532 774.216 455.647 774.8 456.888 775.149C458.111 775.522 459.407 775.602 460.778 775.391C462.148 775.18 463.371 774.711 464.447 773.985C465.525 773.279 466.413 772.387 467.11 771.308C467.79 770.254 468.264 769.058 468.533 767.722C468.802 766.385 468.826 765 468.605 763.566C468.384 762.132 467.945 760.819 467.286 759.625C466.627 758.431 465.814 757.423 464.845 756.601C463.859 755.803 462.744 755.22 461.5 754.85C460.259 754.502 458.953 754.433 457.583 754.644ZM461.119 777.605C459.39 777.872 457.748 777.79 456.192 777.36C454.619 776.955 453.217 776.264 451.988 775.288C450.737 774.315 449.698 773.105 448.871 771.656C448.025 770.232 447.466 768.635 447.194 766.864C446.921 765.093 446.972 763.39 447.346 761.757C447.699 760.127 448.326 758.66 449.226 757.356C450.108 756.076 451.237 754.995 452.612 754.114C453.97 753.258 455.513 752.696 457.242 752.43C458.992 752.161 460.653 752.228 462.227 752.634C463.782 753.063 465.184 753.754 466.431 754.706C467.661 755.682 468.7 756.893 469.548 758.338C470.376 759.786 470.926 761.396 471.199 763.167C471.471 764.938 471.429 766.628 471.073 768.237C470.699 769.87 470.072 771.337 469.193 772.638C468.293 773.943 467.164 775.023 465.807 775.88C464.432 776.76 462.869 777.336 461.119 777.605Z" fill="#F64A00"/>
<path d="M420.142 782.177L417.742 782.236L403.874 762.379L404.37 782.565L401.907 782.626L401.301 757.993L403.7 757.934L417.569 777.791L417.072 757.605L419.535 757.544L420.142 782.177Z" fill="#F64A00"/>
<path d="M368.429 767.711C368.545 766.18 368.821 764.66 369.256 763.153C369.689 761.666 370.246 760.243 370.927 758.882C371.607 757.522 372.399 756.255 373.3 755.083C374.204 753.889 375.172 752.828 376.205 751.901L377.824 753.403C376.879 754.295 376.013 755.288 375.224 756.384C374.435 757.479 373.747 758.647 373.161 759.886C372.553 761.145 372.069 762.446 371.711 763.788C371.329 765.149 371.087 766.522 370.982 767.904C370.877 769.287 370.912 770.67 371.085 772.052C371.236 773.454 371.518 774.813 371.932 776.128C372.323 777.462 372.826 778.73 373.441 779.932C374.054 781.155 374.761 782.279 375.561 783.302L373.736 784.512C372.855 783.439 372.057 782.245 371.344 780.929C370.629 779.634 370.037 778.263 369.569 776.815C369.101 775.368 368.766 773.866 368.562 772.31C368.358 770.776 368.313 769.243 368.429 767.711Z" fill="#F64A00"/>
</svg>
