<svg width="643" height="643" viewBox="0 0 643 643" fill="none" xmlns="http://www.w3.org/2000/svg">
<circle cx="321.5" cy="321.5" r="321.5" fill="#F64A00"/>
<path d="M143.873 263.859L130.883 263.688L133.95 256.369L169.019 256.828L165.952 264.148L153.025 263.978L137.043 302.109L127.892 301.989L143.873 263.859ZM190.012 268.973L198.843 269.089L184.742 302.733L175.911 302.617L177.519 298.781C175.662 300.141 173.613 301.242 171.373 302.083C169.192 302.886 167.078 303.273 165.03 303.246C162.854 303.218 160.989 302.857 159.435 302.164C157.924 301.472 156.784 300.507 156.015 299.271C155.246 298.034 154.854 296.565 154.838 294.864C154.822 293.162 155.251 291.268 156.125 289.183L164.734 268.642L173.566 268.758L165.228 288.649C164.354 290.735 164.333 292.475 165.163 293.871C165.994 295.267 167.604 295.98 169.993 296.012C171.145 296.027 172.323 295.824 173.529 295.405C174.777 294.986 175.933 294.428 176.998 293.729C178.122 292.992 179.125 292.135 180.006 291.157C180.888 290.18 181.551 289.16 181.997 288.097L190.012 268.973ZM223.42 277.363C222.919 276.921 222.283 276.597 221.512 276.389C220.801 276.142 220.061 276.013 219.293 276.003C218.141 275.988 216.941 276.19 215.693 276.609C214.504 276.989 213.348 277.548 212.224 278.285C211.159 278.983 210.186 279.821 209.304 280.799C208.439 281.737 207.784 282.737 207.339 283.8L199.323 302.924L190.492 302.808L204.593 269.164L213.425 269.28L211.817 273.116C213.707 271.677 215.713 270.576 217.834 269.812C219.973 269.009 222.13 268.622 224.305 268.65C225.372 268.664 226.359 268.816 227.268 269.105C228.219 269.394 229.027 269.82 229.692 270.383L223.42 277.363ZM226.058 303.274L217.227 303.158L231.329 269.514L240.16 269.63L238.552 273.466C240.409 272.106 242.428 271.024 244.609 270.222C246.849 269.381 248.993 268.974 251.041 269C253.216 269.029 255.06 269.389 256.571 270.082C258.126 270.775 259.287 271.739 260.056 272.976C260.824 274.213 261.208 275.701 261.208 277.442C261.224 279.144 260.803 281.018 259.946 283.064L251.336 303.605L242.505 303.489L250.842 283.598C251.716 281.512 251.738 279.771 250.907 278.376C250.077 276.98 248.467 276.267 246.078 276.235C244.926 276.22 243.726 276.422 242.478 276.841C241.273 277.261 240.108 277.839 238.984 278.576C237.919 279.274 236.946 280.112 236.064 281.09C235.183 282.067 234.519 283.087 234.074 284.15L226.058 303.274ZM282.126 284.126C284.55 278.341 287.99 272.847 292.444 267.643C296.942 262.44 302.097 257.918 307.911 254.077L312.362 258.349C307.533 261.886 303.296 265.906 299.65 270.408C296.064 274.872 293.272 279.484 291.277 284.246C289.281 289.007 288.188 293.662 287.998 298.209C287.867 302.718 288.715 306.785 290.542 310.409L282.578 314.519C280.03 310.568 278.692 305.981 278.566 300.756C278.498 295.493 279.685 289.95 282.126 284.126ZM313.684 281.572C312.728 283.854 312.221 285.984 312.164 287.961C312.108 289.939 312.457 291.665 313.212 293.138C313.983 294.573 315.113 295.715 316.601 296.566C318.132 297.417 319.964 297.856 322.097 297.884C324.23 297.912 326.387 297.525 328.568 296.722C330.792 295.921 332.862 294.82 334.778 293.421C336.753 291.983 338.537 290.285 340.13 288.327C341.723 286.37 342.997 284.25 343.954 281.968C344.91 279.686 345.409 277.575 345.449 275.637C345.506 273.659 345.157 271.934 344.402 270.46C343.689 268.987 342.568 267.825 341.037 266.974C339.549 266.123 337.738 265.684 335.605 265.656C333.472 265.628 331.293 266.015 329.07 266.817C326.889 267.619 324.811 268.74 322.835 270.178C320.86 271.616 319.076 273.313 317.483 275.271C315.907 277.189 314.641 279.289 313.684 281.572ZM304.405 281.45C305.791 278.145 307.674 275.083 310.056 272.266C312.455 269.409 315.187 266.932 318.254 264.836C321.32 262.739 324.594 261.12 328.075 259.979C331.573 258.798 335.114 258.231 338.697 258.278C342.238 258.324 345.246 258.977 347.722 260.236C350.213 261.456 352.08 263.142 353.323 265.295C354.608 267.448 355.246 269.969 355.236 272.857C355.286 275.706 354.618 278.784 353.233 282.089C351.848 285.395 349.934 288.476 347.493 291.332C345.095 294.189 342.362 296.666 339.296 298.762C336.288 300.82 333.036 302.439 329.538 303.62C326.057 304.761 322.546 305.308 319.005 305.262C315.421 305.215 312.384 304.582 309.892 303.362C307.417 302.103 305.528 300.417 304.227 298.303C302.941 296.149 302.304 293.629 302.313 290.741C302.322 287.852 303.02 284.756 304.405 281.45ZM366.918 259.419L375.941 259.537L383.642 291.212L396.803 259.81L405.506 259.924L386.457 305.374L377.434 305.255L369.733 273.581L356.572 304.982L347.869 304.868L366.918 259.419ZM418.595 285.912C416.154 291.736 412.685 297.25 408.188 302.453C403.75 307.618 398.624 312.121 392.81 315.962L388.359 311.689C393.188 308.152 397.395 304.152 400.982 299.688C404.628 295.186 407.448 290.554 409.444 285.793C411.44 281.031 412.503 276.396 412.634 271.887C412.824 267.34 412.006 263.254 410.179 259.629L418.143 255.52C420.691 259.47 421.999 264.077 422.067 269.34C422.177 274.604 421.02 280.128 418.595 285.912ZM459.284 267.987L446.293 267.817L449.361 260.498L484.43 260.957L481.362 268.276L468.435 268.107L452.454 306.238L443.302 306.118L459.284 267.987ZM477.437 306.565L468.606 306.449L488.471 259.052L497.303 259.167L489.93 276.757C491.787 275.396 493.806 274.315 495.987 273.513C498.227 272.671 500.371 272.264 502.419 272.291C504.595 272.32 506.438 272.68 507.95 273.372C509.504 274.065 510.665 275.03 511.434 276.267C512.203 277.503 512.587 278.992 512.586 280.733C512.602 282.435 512.182 284.309 511.324 286.355L502.715 306.895L493.884 306.78L502.221 286.888C503.095 284.803 503.116 283.062 502.286 281.667C501.455 280.271 499.845 279.557 497.456 279.526C496.304 279.511 495.104 279.713 493.856 280.132C492.651 280.551 491.486 281.13 490.362 281.867C489.298 282.565 488.324 283.403 487.443 284.38C486.561 285.358 485.898 286.378 485.452 287.44L477.437 306.565ZM521.619 292.78C521.281 294.2 521.21 295.446 521.404 296.517C521.658 297.549 522.085 298.425 522.684 299.145C523.342 299.826 524.173 300.351 525.176 300.72C526.18 301.09 527.3 301.282 528.537 301.299C530.585 301.325 532.576 300.976 534.511 300.249C536.462 299.483 538.387 298.421 540.287 297.061L543.904 302.093C540.914 304.112 537.988 305.616 535.127 306.608C532.283 307.56 529.197 308.014 525.87 307.97C522.841 307.93 520.3 307.442 518.247 306.505C516.195 305.568 514.645 304.302 513.598 302.705C512.611 301.07 512.093 299.184 512.045 297.047C512.04 294.91 512.557 292.603 513.596 290.123C514.618 287.684 516.044 285.408 517.873 283.295C519.719 281.143 521.804 279.291 524.127 277.739C526.467 276.147 529 274.914 531.726 274.04C534.452 273.165 537.223 272.747 540.038 272.784C542.854 272.82 545.203 273.306 547.085 274.241C549.009 275.176 550.439 276.421 551.374 277.977C552.31 279.532 552.767 281.358 552.746 283.455C552.742 285.512 552.253 287.702 551.28 290.023C551.098 290.456 550.841 290.967 550.509 291.556C550.192 292.106 549.863 292.636 549.521 293.146L521.619 292.78ZM537.193 279.571C535.017 279.543 532.778 280.127 530.475 281.323C528.188 282.48 526.187 284.235 524.473 286.586L543.415 286.834C543.708 284.701 543.359 282.976 542.368 281.657C541.393 280.299 539.668 279.604 537.193 279.571ZM238.305 350.683C236.969 353.871 235.059 356.536 232.573 358.68C230.087 360.823 227.18 362.388 223.85 363.373L226.232 382.099L216.185 381.968L214.691 364.499L207.459 364.405L200.186 381.758L191.035 381.638L210.084 336.189L227.107 336.412C229.752 336.446 231.979 336.812 233.789 337.508C235.659 338.166 237.063 339.114 238.002 340.353C239.001 341.553 239.513 343.043 239.539 344.824C239.623 346.566 239.212 348.519 238.305 350.683ZM229.09 350.563C231.02 345.959 229.147 343.62 223.473 343.545L216.242 343.451L210.428 357.322L217.66 357.416C223.334 357.491 227.144 355.206 229.09 350.563ZM256.856 379.236C254.835 380.475 252.716 381.437 250.499 382.12C248.282 382.803 246.043 383.13 243.782 383.1C241.222 383.067 239.044 382.583 237.248 381.65C235.511 380.677 234.204 379.394 233.328 377.8C232.468 376.167 232.036 374.282 232.03 372.145C232.068 370.009 232.597 367.721 233.62 365.281C234.643 362.842 236.026 360.565 237.77 358.451C239.556 356.338 241.547 354.504 243.743 352.951C245.955 351.357 248.317 350.122 250.83 349.245C253.401 348.329 255.967 347.888 258.527 347.921C260.788 347.951 262.722 348.352 264.328 349.125C265.951 349.858 267.245 350.864 268.211 352.143L269.596 348.838L278.427 348.953L264.326 382.598L255.495 382.482L256.856 379.236ZM242.515 365.398C241.922 366.814 241.595 368.155 241.537 369.421C241.478 370.686 241.678 371.796 242.135 372.752C242.635 373.708 243.389 374.47 244.395 375.037C245.418 375.565 246.697 375.839 248.233 375.859C249.684 375.878 251.113 375.639 252.522 375.143C253.974 374.648 255.308 373.973 256.524 373.118C257.799 372.225 258.927 371.172 259.908 369.958C260.931 368.745 261.752 367.45 262.372 366.073L262.719 365.247C263.253 363.869 263.512 362.586 263.495 361.399C263.537 360.173 263.3 359.102 262.783 358.185C262.309 357.269 261.561 356.547 260.538 356.019C259.558 355.492 258.342 355.219 256.892 355.2C255.356 355.18 253.854 355.437 252.386 355.972C250.934 356.467 249.562 357.181 248.271 358.114C247.022 359.047 245.899 360.14 244.901 361.393C243.904 362.646 243.109 363.981 242.515 365.398ZM298.479 379.781C296.459 381.02 294.34 381.982 292.123 382.665C289.906 383.348 287.667 383.675 285.406 383.645C282.846 383.612 280.668 383.128 278.872 382.195C277.134 381.222 275.828 379.939 274.952 378.345C274.092 376.712 273.659 374.827 273.654 372.69C273.691 370.554 274.221 368.266 275.244 365.826C276.267 363.386 277.65 361.11 279.394 358.996C281.18 356.883 283.171 355.049 285.367 353.495C287.579 351.902 289.941 350.667 292.454 349.79C295.025 348.874 297.591 348.433 300.151 348.466C302.412 348.496 304.346 348.897 305.952 349.67C307.575 350.403 308.869 351.409 309.835 352.688L316.984 335.63L325.816 335.745L305.95 383.143L297.119 383.027L298.479 379.781ZM284.139 365.943C283.545 367.359 283.219 368.7 283.161 369.966C283.102 371.231 283.302 372.341 283.759 373.297C284.259 374.253 285.013 375.015 286.019 375.582C287.042 376.11 288.321 376.383 289.857 376.404C291.308 376.423 292.737 376.184 294.146 375.688C295.598 375.193 296.932 374.518 298.148 373.663C299.423 372.77 300.551 371.717 301.532 370.503C302.555 369.29 303.376 367.995 303.996 366.618L304.343 365.792C304.877 364.414 305.136 363.131 305.119 361.944C305.161 360.718 304.923 359.647 304.407 358.73C303.933 357.814 303.185 357.092 302.162 356.564C301.182 356.037 299.966 355.764 298.516 355.745C296.98 355.725 295.478 355.982 294.01 356.517C292.558 357.012 291.186 357.726 289.895 358.659C288.646 359.592 287.522 360.685 286.525 361.938C285.528 363.191 284.733 364.526 284.139 365.943ZM327.103 349.591L335.935 349.706L321.833 383.351L313.002 383.235L327.103 349.591ZM329.928 340.547C330.506 339.17 331.504 338.016 332.924 337.085C334.386 336.154 335.864 335.699 337.357 335.718C338.893 335.739 339.975 336.228 340.603 337.185C341.231 338.143 341.257 339.311 340.68 340.688C340.102 342.065 339.104 343.219 337.684 344.15C336.264 345.081 334.787 345.537 333.251 345.517C331.757 345.497 330.675 345.008 330.005 344.05C329.377 343.092 329.351 341.924 329.928 340.547ZM334.026 366.596C335.049 364.156 336.475 361.88 338.304 359.767C340.15 357.615 342.234 355.763 344.558 354.211C346.941 352.62 349.474 351.387 352.157 350.512C354.84 349.637 357.547 349.218 360.277 349.253C363.008 349.289 365.335 349.775 367.259 350.71C369.184 351.645 370.64 352.93 371.628 354.565C372.632 356.161 373.15 358.047 373.181 360.224C373.229 362.361 372.742 364.649 371.719 367.089C370.68 369.568 369.246 371.864 367.417 373.977C365.588 376.089 363.503 377.941 361.163 379.533C358.839 381.085 356.336 382.299 353.653 383.174C350.97 384.049 348.263 384.468 345.533 384.432C342.802 384.397 340.475 383.911 338.55 382.976C336.626 382.041 335.14 380.775 334.093 379.179C333.106 377.543 332.588 375.657 332.54 373.52C332.492 371.383 332.987 369.075 334.026 366.596ZM342.922 366.712C342.311 368.168 341.998 369.529 341.983 370.795C341.967 372.061 342.209 373.172 342.709 374.128C343.209 375.084 343.941 375.845 344.905 376.412C345.927 376.94 347.143 377.213 348.551 377.231C349.959 377.25 351.367 377.011 352.776 376.515C354.244 375.98 355.624 375.247 356.916 374.314C358.208 373.381 359.352 372.288 360.349 371.035C361.389 369.783 362.214 368.429 362.824 366.973C363.434 365.517 363.747 364.156 363.763 362.89C363.821 361.625 363.592 360.533 363.076 359.617C362.576 358.661 361.814 357.919 360.791 357.391C359.828 356.824 358.642 356.532 357.234 356.513C355.826 356.495 354.388 356.753 352.92 357.288C351.511 357.784 350.161 358.498 348.869 359.431C347.594 360.324 346.436 361.397 345.397 362.649C344.357 363.902 343.532 365.256 342.922 366.712ZM384.526 350.342L389.474 338.537L398.625 338.657L393.677 350.462L384.207 370.754L376.976 370.66L384.526 350.342ZM371.143 379.664C371.753 378.208 372.789 377.014 374.252 376.084C375.73 375.114 377.28 374.64 378.902 374.661C380.523 374.682 381.661 375.192 382.315 376.19C383.028 377.148 383.08 378.356 382.47 379.812C381.859 381.268 380.793 382.48 379.272 383.45C377.81 384.38 376.268 384.835 374.647 384.813C373.025 384.792 371.879 384.302 371.209 383.344C370.554 382.346 370.532 381.12 371.143 379.664ZM403.262 350.588L408.21 338.783L417.361 338.902L412.413 350.707L402.943 370.999L395.711 370.905L403.262 350.588ZM389.879 379.909C390.489 378.453 391.525 377.26 392.987 376.329C394.466 375.359 396.016 374.885 397.638 374.906C399.259 374.928 400.397 375.437 401.051 376.435C401.764 377.394 401.816 378.601 401.206 380.057C400.595 381.513 399.529 382.726 398.008 383.695C396.545 384.625 395.004 385.08 393.382 385.059C391.761 385.038 390.615 384.548 389.945 383.589C389.29 382.592 389.268 381.365 389.879 379.909Z" fill="white"/>
</svg>
